999
dxfrw 0.6.3
  0
SECTION
  2
HEADER
  9
$ACADVER
  1
AC1021
  9
$DWGCODEPAGE
  3
ANSI_1252
  9
$INSBASE
 10
0
 20
0
 30
0
  9
$EXTMIN
 10
-16.125
 20
-17.25
 30
0
  9
$EXTMAX
 10
173
 20
147
 30
0
  9
$LIMMIN
 10
0
 20
0
  9
$LIMMAX
 10
420
 20
297
  9
$ORTHOMODE
 70
    0
  9
$REGENMODE
 70
    1
  9
$FILLMODE
 70
    1
  9
$QTEXTMODE
 70
    0
  9
$MIRRTEXT
 70
    0
  9
$LTSCALE
 40
1
  9
$ATTMODE
 70
    0
  9
$TEXTSIZE
 40
2.5
  9
$TRACEWID
 40
15.68
  9
$TEXTSTYLE
  7
STANDARD
  9
$CLAYER
  8
0
  9
$CELTYPE
  6
BYLAYER
  9
$CECOLOR
 62
  256
  9
$CELTSCALE
 40
1
  9
$DISPSILH
 70
    0
  9
$DIMSCALE
 40
1
  9
$DIMASZ
 40
2.5
  9
$DIMEXO
 40
0.625
  9
$DIMDLI
 40
3.75
  9
$DIMRND
 40
0
  9
$DIMDLE
 40
0
  9
$DIMEXE
 40
1.25
  9
$DIMTP
 40
0
  9
$DIMTM
 40
0
  9
$DIMTXT
 40
2.5
  9
$DIMCEN
 40
2.5
  9
$DIMTSZ
 40
0
  9
$DIMTOL
 70
    0
  9
$DIMLIM
 70
    0
  9
$DIMTIH
 70
    0
  9
$DIMTOH
 70
    0
  9
$DIMSE1
 70
    0
  9
$DIMSE2
 70
    0
  9
$DIMTAD
 70
    1
  9
$DIMZIN
 70
    1
  9
$DIMBLK
  1

  9
$DIMASO
 70
    1
  9
$DIMSHO
 70
    1
  9
$DIMPOST
  1

  9
$DIMAPOST
  1

  9
$DIMALT
 70
    0
  9
$DIMALTD
 70
    3
  9
$DIMALTF
 40
0.03937
  9
$DIMLFAC
 40
1
  9
$DIMTOFL
 70
    1
  9
$DIMTVP
 40
0
  9
$DIMTIX
 70
    0
  9
$DIMSOXD
 70
    0
  9
$DIMSAH
 70
    0
  9
$DIMBLK1
  1

  9
$DIMBLK2
  1

  9
$DIMSTYLE
  2
STANDARD
  9
$DIMCLRD
 70
    0
  9
$DIMCLRE
 70
    0
  9
$DIMCLRT
 70
    0
  9
$DIMTFAC
 40
1
  9
$DIMGAP
 40
0.625
  9
$DIMJUST
 70
    0
  9
$DIMSD1
 70
    0
  9
$DIMSD2
 70
    0
  9
$DIMTOLJ
 70
    0
  9
$DIMTZIN
 70
    8
  9
$DIMALTZ
 70
    0
  9
$DIMALTTZ
 70
    0
  9
$DIMUPT
 70
    0
  9
$DIMDEC
 70
    1
  9
$DIMTDEC
 70
    2
  9
$DIMALTU
 70
    2
  9
$DIMALTTD
 70
    3
  9
$DIMTXSTY
  7
standard
  9
$DIMAUNIT
 70
    0
  9
$DIMADEC
 70
    2
  9
$DIMALTRND
 40
0
  9
$DIMAZIN
 70
    0
  9
$DIMDSEP
 70
    0
  9
$DIMATFIT
 70
    3
  9
$DIMFRAC
 70
    0
  9
$DIMLDRBLK
  1
STANDARD
  9
$DIMLUNIT
 70
    2
  9
$DIMLWD
 70
   -2
  9
$DIMLWE
 70
   -2
  9
$DIMTMOVE
 70
    0
  9
$DIMFXL
 40
1
  9
$DIMFXLON
 70
    0
  9
$DIMJOGANG
 40
0.7854
  9
$DIMTFILL
 70
    0
  9
$DIMTFILLCLR
 70
    0
  9
$DIMARCSYM
 70
    0
  9
$DIMLTYPE
  6

  9
$DIMLTEX1
  6

  9
$DIMLTEX2
  6

  9
$LUNITS
 70
    2
  9
$LUPREC
 70
    1
  9
$SKETCHINC
 40
1
  9
$FILLETRAD
 40
0
  9
$AUNITS
 70
    0
  9
$AUPREC
 70
    2
  9
$MENU
  1
.
  9
$ELEVATION
 40
0
  9
$PELEVATION
 40
0
  9
$THICKNESS
 40
0
  9
$LIMCHECK
 70
    0
  9
$CHAMFERA
 40
0
  9
$CHAMFERB
 40
0
  9
$CHAMFERC
 40
0
  9
$CHAMFERD
 40
0
  9
$SKPOLY
 70
    0
  9
$USRTIMER
 70
    1
  9
$ANGBASE
 50
0
  9
$ANGDIR
 70
    0
  9
$PDMODE
 70
   96
  9
$PDSIZE
 40
-2
  9
$PLINEWID
 40
0
  9
$SPLFRAME
 70
    0
  9
$SPLINETYPE
 70
    2
  9
$SPLINESEGS
 70
    8
  9
$HANDSEED
  5
20000
  9
$SURFTAB1
 70
    6
  9
$SURFTAB2
 70
    6
  9
$SURFTYPE
 70
    6
  9
$SURFU
 70
    6
  9
$SURFV
 70
    6
  9
$UCSBASE
  2

  9
$UCSNAME
  2

  9
$UCSORG
 10
0
 20
0
 30
0
  9
$UCSXDIR
 10
1
 20
0
 30
0
  9
$UCSYDIR
 10
0
 20
1
 30
0
  9
$UCSORTHOREF
  2

  9
$UCSORTHOVIEW
 70
    0
  9
$UCSORGTOP
 10
0
 20
0
 30
0
  9
$UCSORGBOTTOM
 10
0
 20
0
 30
0
  9
$UCSORGLEFT
 10
0
 20
0
 30
0
  9
$UCSORGRIGHT
 10
0
 20
0
 30
0
  9
$UCSORGFRONT
 10
0
 20
0
 30
0
  9
$UCSORGBACK
 10
0
 20
0
 30
0
  9
$PUCSBASE
  2

  9
$PUCSNAME
  2

  9
$PUCSORG
 10
0
 20
0
 30
0
  9
$PUCSXDIR
 10
1
 20
0
 30
0
  9
$PUCSYDIR
 10
0
 20
1
 30
0
  9
$PUCSORTHOREF
  2

  9
$PUCSORTHOVIEW
 70
    0
  9
$PUCSORGTOP
 10
0
 20
0
 30
0
  9
$PUCSORGBOTTOM
 10
0
 20
0
 30
0
  9
$PUCSORGLEFT
 10
0
 20
0
 30
0
  9
$PUCSORGRIGHT
 10
0
 20
0
 30
0
  9
$PUCSORGFRONT
 10
0
 20
0
 30
0
  9
$PUCSORGBACK
 10
0
 20
0
 30
0
  9
$USERI1
 70
    0
  9
$USERI2
 70
    0
  9
$USERI3
 70
    0
  9
$USERI4
 70
    0
  9
$USERI5
 70
    0
  9
$USERR1
 40
0
  9
$USERR2
 40
0
  9
$USERR3
 40
0
  9
$USERR4
 40
0
  9
$USERR5
 40
0
  9
$WORLDVIEW
 70
    1
  9
$SHADEDGE
 70
    3
  9
$SHADEDIF
 70
   70
  9
$TILEMODE
 70
    1
  9
$MAXACTVP
 70
   64
  9
$PINSBASE
 10
48.21461187214612
 20
22.05479452054794
 30
0
  9
$PLIMCHECK
 70
    0
  9
$PEXTMIN
 10
0
 20
0
 30
0
  9
$PEXTMAX
 10
0
 20
0
 30
0
  9
$GRIDMODE
 70
    1
  9
$SNAPSTYLE
 70
    0
  9
$GRIDUNIT
 10
0
 20
0
  9
$PLIMMIN
 10
0
 20
0
  9
$PLIMMAX
 10
297
 20
210
  9
$UNITMODE
 70
    0
  9
$VISRETAIN
 70
    1
  9
$PLINEGEN
 70
    0
  9
$PSLTSCALE
 70
    1
  9
$TREEDEPTH
 70
 3020
  9
$CMLSTYLE
  2
Standard
  9
$CMLJUST
 70
    0
  9
$CMLSCALE
 40
20
  9
$PROXYGRAPHICS
 70
    1
  9
$MEASUREMENT
 70
    1
  9
$CELWEIGHT
370
   -1
  9
$ENDCAPS
280
    0
  9
$JOINSTYLE
280
    0
  9
$LWDISPLAY
290
    0
  9
$INSUNITS
 70
    4
  9
$HYPERLINKBASE
  1

  9
$STYLESHEET
  1

  9
$XEDIT
290
    1
  9
$CEPSNTYPE
380
    0
  9
$PSTYLEMODE
290
    1
  9
$EXTNAMES
290
    1
  9
$PSVPSCALE
 40
1
  9
$OLESTARTUP
290
    0
  9
$SORTENTS
280
  127
  9
$INDEXCTL
280
    0
  9
$HIDETEXT
280
    1
  9
$XCLIPFRAME
290
    0
  9
$HALOGAP
280
    0
  9
$OBSCOLOR
 70
  257
  9
$OBSLTYPE
280
    0
  9
$INTERSECTIONDISPLAY
280
    0
  9
$INTERSECTIONCOLOR
 70
  257
  9
$DIMASSOC
280
    1
  9
$PROJECTNAME
  1

  9
$CAMERADISPLAY
290
    0
  9
$LENSLENGTH
 40
50
  9
$CAMERAHEIGHT
 40
0
  9
$STEPSPERSEC
 40
2
  9
$STEPSIZE
 40
50
  9
$3DDWFPREC
 40
2
  9
$PSOLWIDTH
 40
5
  9
$PSOLHEIGHT
 40
80
  9
$LOFTANG1
 40
1.570796326794897
  9
$LOFTANG2
 40
1.570796326794897
  9
$LOFTMAG1
 40
0
  9
$LOFTMAG2
 40
0
  9
$LOFTPARAM
 70
    7
  9
$LOFTNORMALS
280
    1
  9
$LATITUDE
 40
1
  9
$LONGITUDE
 40
1
  9
$NORTHDIRECTION
 40
0
  9
$TIMEZONE
 70
-8000
  9
$LIGHTGLYPHDISPLAY
280
    1
  9
$TILEMODELIGHTSYNCH
280
    1
  9
$SOLIDHIST
280
    1
  9
$SHOWHIST
280
    1
  9
$DWFFRAME
280
    2
  9
$DGNFRAME
280
    0
  9
$REALWORLDSCALE
290
    1
  9
$INTERFERECOLOR
 62
    1
  9
$CSHADOW
280
    0
  9
$SHADOWPLANELOCATION
 40
0
  0
ENDSEC
  0
SECTION
  2
CLASSES
  0
ENDSEC
  0
SECTION
  2
TABLES
  0
TABLE
  2
VPORT
  5
8
330
0
100
AcDbSymbolTable
 70
    1
  0
VPORT
  5
31
330
2
100
AcDbSymbolTableRecord
100
AcDbViewportTableRecord
  2
*ACTIVE
 70
    0
 10
0
 20
0
 11
1
 21
1
 12
126.5262358625608
 22
80.65725422603163
 13
0
 23
0
 14
10
 24
10
 15
10
 25
10
 16
0
 26
0
 36
1
 17
0
 27
0
 37
0
 40
217.4911264114079
 41
1.785545023696683
 42
50
 43
0
 44
0
 50
0
 51
0
 71
    0
 72
  100
 73
    1
 74
    3
 75
    0
 76
    1
 77
    0
 78
    0
281
    0
 65
    1
110
0
120
0
130
0
111
1
121
0
131
0
112
0
122
1
132
0
 79
    0
146
0
348
10020
 60
    7
 61
    5
292
1
282
    1
141
0
142
0
 63
  250
421
3358443
  0
ENDTAB
  0
TABLE
  2
LTYPE
  5
5
330
0
100
AcDbSymbolTable
 70
    4
  0
LTYPE
  5
14
330
5
100
AcDbSymbolTableRecord
100
AcDbLinetypeTableRecord
  2
ByBlock
 70
    0
  3

 72
   65
 73
    0
 40
0
  0
LTYPE
  5
15
330
5
100
AcDbSymbolTableRecord
100
AcDbLinetypeTableRecord
  2
ByLayer
 70
    0
  3

 72
   65
 73
    0
 40
0
  0
LTYPE
  5
16
330
5
100
AcDbSymbolTableRecord
100
AcDbLinetypeTableRecord
  2
Continuous
 70
    0
  3
Solid line
 72
   65
 73
    0
 40
0
  0
LTYPE
  5
32
330
5
100
AcDbSymbolTableRecord
100
AcDbLinetypeTableRecord
  2
DOT
 70
    0
  3
Dot . . . . . . . . . . . . . . . . . . . . . .
 72
   65
 73
    2
 40
6.35
 49
0
 74
    0
 49
-6.35
 74
    0
  0
LTYPE
  5
33
330
5
100
AcDbSymbolTableRecord
100
AcDbLinetypeTableRecord
  2
DOTTINY
 70
    0
  3
Dot (.15x) .....................................
 72
   65
 73
    2
 40
0.9525
 49
0
 74
    0
 49
-0.9525
 74
    0
  0
LTYPE
  5
34
330
5
100
AcDbSymbolTableRecord
100
AcDbLinetypeTableRecord
  2
DOT2
 70
    0
  3
Dot (.5x) .....................................
 72
   65
 73
    2
 40
3.175
 49
0
 74
    0
 49
-3.175
 74
    0
  0
LTYPE
  5
35
330
5
100
AcDbSymbolTableRecord
100
AcDbLinetypeTableRecord
  2
DOTX2
 70
    0
  3
Dot (2x) .  .  .  .  .  .  .  .  .  .  .  .  .
 72
   65
 73
    2
 40
12.7
 49
0
 74
    0
 49
-12.7
 74
    0
  0
LTYPE
  5
36
330
5
100
AcDbSymbolTableRecord
100
AcDbLinetypeTableRecord
  2
DASHED
 70
    0
  3
Dashed _ _ _ _ _ _ _ _ _ _ _ _ _ _ _ _ _
 72
   65
 73
    2
 40
19.05
 49
12.7
 74
    0
 49
-6.35
 74
    0
  0
LTYPE
  5
37
330
5
100
AcDbSymbolTableRecord
100
AcDbLinetypeTableRecord
  2
DASHEDTINY
 70
    0
  3
Dashed (.15x) _ _ _ _ _ _ _ _ _ _ _ _ _ _ _ _ _
 72
   65
 73
    2
 40
2.8575
 49
1.905
 74
    0
 49
-0.9525
 74
    0
  0
LTYPE
  5
38
330
5
100
AcDbSymbolTableRecord
100
AcDbLinetypeTableRecord
  2
DASHED2
 70
    0
  3
Dashed (.5x) _ _ _ _ _ _ _ _ _ _ _ _ _ _ _ _ _
 72
   65
 73
    2
 40
9.524999999999999
 49
6.35
 74
    0
 49
-3.175
 74
    0
  0
LTYPE
  5
39
330
5
100
AcDbSymbolTableRecord
100
AcDbLinetypeTableRecord
  2
DASHEDX2
 70
    0
  3
Dashed (2x) ____  ____  ____  ____  ____  ___
 72
   65
 73
    2
 40
38.09999999999999
 49
25.4
 74
    0
 49
-12.7
 74
    0
  0
LTYPE
  5
3A
330
5
100
AcDbSymbolTableRecord
100
AcDbLinetypeTableRecord
  2
DASHDOT
 70
    0
  3
Dash dot __ . __ . __ . __ . __ . __ . __ . __
 72
   65
 73
    4
 40
25.4
 49
12.7
 74
    0
 49
-6.35
 74
    0
 49
0
 74
    0
 49
-6.35
 74
    0
  0
LTYPE
  5
3B
330
5
100
AcDbSymbolTableRecord
100
AcDbLinetypeTableRecord
  2
DASHDOTTINY
 70
    0
  3
Dash dot (.15x) _._._._._._._._._._._._._._._.
 72
   65
 73
    4
 40
3.81
 49
1.905
 74
    0
 49
-0.9525
 74
    0
 49
0
 74
    0
 49
-0.9525
 74
    0
  0
LTYPE
  5
3C
330
5
100
AcDbSymbolTableRecord
100
AcDbLinetypeTableRecord
  2
DASHDOT2
 70
    0
  3
Dash dot (.5x) _._._._._._._._._._._._._._._.
 72
   65
 73
    4
 40
12.7
 49
6.35
 74
    0
 49
-3.175
 74
    0
 49
0
 74
    0
 49
-3.175
 74
    0
  0
LTYPE
  5
3D
330
5
100
AcDbSymbolTableRecord
100
AcDbLinetypeTableRecord
  2
DASHDOTX2
 70
    0
  3
Dash dot (2x) ____  .  ____  .  ____  .  ___
 72
   65
 73
    4
 40
50.8
 49
25.4
 74
    0
 49
-12.7
 74
    0
 49
0
 74
    0
 49
-12.7
 74
    0
  0
LTYPE
  5
3E
330
5
100
AcDbSymbolTableRecord
100
AcDbLinetypeTableRecord
  2
DIVIDE
 70
    0
  3
Divide ____ . . ____ . . ____ . . ____ . . ____
 72
   65
 73
    6
 40
31.75
 49
12.7
 74
    0
 49
-6.35
 74
    0
 49
0
 74
    0
 49
-6.35
 74
    0
 49
0
 74
    0
 49
-6.35
 74
    0
  0
LTYPE
  5
3F
330
5
100
AcDbSymbolTableRecord
100
AcDbLinetypeTableRecord
  2
DIVIDETINY
 70
    0
  3
Divide (.15x) __..__..__..__..__..__..__..__.._
 72
   65
 73
    6
 40
4.7625
 49
1.905
 74
    0
 49
-0.9525
 74
    0
 49
0
 74
    0
 49
-0.9525
 74
    0
 49
0
 74
    0
 49
-0.9525
 74
    0
  0
LTYPE
  5
40
330
5
100
AcDbSymbolTableRecord
100
AcDbLinetypeTableRecord
  2
DIVIDE2
 70
    0
  3
Divide (.5x) __..__..__..__..__..__..__..__.._
 72
   65
 73
    6
 40
15.875
 49
6.35
 74
    0
 49
-3.175
 74
    0
 49
0
 74
    0
 49
-3.175
 74
    0
 49
0
 74
    0
 49
-3.175
 74
    0
  0
LTYPE
  5
41
330
5
100
AcDbSymbolTableRecord
100
AcDbLinetypeTableRecord
  2
DIVIDEX2
 70
    0
  3
Divide (2x) ________  .  .  ________  .  .  _
 72
   65
 73
    6
 40
63.5
 49
25.4
 74
    0
 49
-12.7
 74
    0
 49
0
 74
    0
 49
-12.7
 74
    0
 49
0
 74
    0
 49
-12.7
 74
    0
  0
LTYPE
  5
42
330
5
100
AcDbSymbolTableRecord
100
AcDbLinetypeTableRecord
  2
BORDER
 70
    0
  3
Border __ __ . __ __ . __ __ . __ __ . __ __ .
 72
   65
 73
    6
 40
44.45
 49
12.7
 74
    0
 49
-6.35
 74
    0
 49
12.7
 74
    0
 49
-6.35
 74
    0
 49
0
 74
    0
 49
-6.35
 74
    0
  0
LTYPE
  5
43
330
5
100
AcDbSymbolTableRecord
100
AcDbLinetypeTableRecord
  2
BORDERTINY
 70
    0
  3
Border (.15x) __.__.__.__.__.__.__.__.__.__.__.
 72
   65
 73
    6
 40
6.6675
 49
1.905
 74
    0
 49
-0.9525
 74
    0
 49
1.905
 74
    0
 49
-0.9525
 74
    0
 49
0
 74
    0
 49
-0.9525
 74
    0
  0
LTYPE
  5
44
330
5
100
AcDbSymbolTableRecord
100
AcDbLinetypeTableRecord
  2
BORDER2
 70
    0
  3
Border (.5x) __.__.__.__.__.__.__.__.__.__.__.
 72
   65
 73
    6
 40
22.225
 49
6.35
 74
    0
 49
-3.175
 74
    0
 49
6.35
 74
    0
 49
-3.175
 74
    0
 49
0
 74
    0
 49
-3.175
 74
    0
  0
LTYPE
  5
45
330
5
100
AcDbSymbolTableRecord
100
AcDbLinetypeTableRecord
  2
BORDERX2
 70
    0
  3
Border (2x) ____  ____  .  ____  ____  .  ___
 72
   65
 73
    6
 40
88.89999999999999
 49
25.4
 74
    0
 49
-12.7
 74
    0
 49
25.4
 74
    0
 49
-12.7
 74
    0
 49
0
 74
    0
 49
-12.7
 74
    0
  0
LTYPE
  5
46
330
5
100
AcDbSymbolTableRecord
100
AcDbLinetypeTableRecord
  2
CENTER
 70
    0
  3
Center ____ _ ____ _ ____ _ ____ _ ____ _ ____
 72
   65
 73
    4
 40
50.8
 49
31.75
 74
    0
 49
-6.35
 74
    0
 49
6.35
 74
    0
 49
-6.35
 74
    0
  0
LTYPE
  5
47
330
5
100
AcDbSymbolTableRecord
100
AcDbLinetypeTableRecord
  2
CENTERTINY
 70
    0
  3
Center (.15x) ___ _ ___ _ ___ _ ___ _ ___ _ ___
 72
   65
 73
    4
 40
7.619999999999999
 49
4.7625
 74
    0
 49
-0.9525
 74
    0
 49
0.9525
 74
    0
 49
-0.9525
 74
    0
  0
LTYPE
  5
48
330
5
100
AcDbSymbolTableRecord
100
AcDbLinetypeTableRecord
  2
CENTER2
 70
    0
  3
Center (.5x) ___ _ ___ _ ___ _ ___ _ ___ _ ___
 72
   65
 73
    4
 40
28.575
 49
19.05
 74
    0
 49
-3.175
 74
    0
 49
3.175
 74
    0
 49
-3.175
 74
    0
  0
LTYPE
  5
49
330
5
100
AcDbSymbolTableRecord
100
AcDbLinetypeTableRecord
  2
CENTERX2
 70
    0
  3
Center (2x) ________  __  ________  __  _____
 72
   65
 73
    4
 40
101.6
 49
63.5
 74
    0
 49
-12.7
 74
    0
 49
12.7
 74
    0
 49
-12.7
 74
    0
  0
ENDTAB
  0
TABLE
  2
LAYER
  5
2
330
0
100
AcDbSymbolTable
 70
    1
  0
LAYER
  5
10
330
2
100
AcDbSymbolTableRecord
100
AcDbLayerTableRecord
  2
0
 70
    0
 62
    7
  6
CONTINUOUS
370
   50
390
F
  0
LAYER
  5
4A
330
2
100
AcDbSymbolTableRecord
100
AcDbLayerTableRecord
  2
costruzione
 70
    1
 62
    7
  6
CONTINUOUS
290
0
370
    0
390
F
1001
LibreCad
1070
    1
  0
LAYER
  5
4B
330
2
100
AcDbSymbolTableRecord
100
AcDbLayerTableRecord
  2
quote
 70
    4
 62
    7
  6
CONTINUOUS
370
    0
390
F
  0
ENDTAB
  0
TABLE
  2
STYLE
  5
3
330
0
100
AcDbSymbolTable
 70
    3
  0
STYLE
  5
4C
330
2
100
AcDbSymbolTableRecord
100
AcDbTextStyleTableRecord
  2
Standard
 70
    0
 40
0
 41
1
 50
0
 71
    0
 42
1
  3
txt
  4

  0
ENDTAB
  0
TABLE
  2
VIEW
  5
6
330
0
100
AcDbSymbolTable
 70
    0
  0
ENDTAB
  0
TABLE
  2
UCS
  5
7
330
0
100
AcDbSymbolTable
 70
    0
  0
ENDTAB
  0
TABLE
  2
APPID
  5
9
330
0
100
AcDbSymbolTable
 70
    1
  0
APPID
  5
12
330
9
100
AcDbSymbolTableRecord
100
AcDbRegAppTableRecord
  2
ACAD
 70
    0
  0
APPID
  5
4D
330
9
100
AcDbSymbolTableRecord
100
AcDbRegAppTableRecord
  2
LibreCad
 70
    0
  0
ENDTAB
  0
TABLE
  2
DIMSTYLE
  5
A
330
0
100
AcDbSymbolTable
 70
    1
100
AcDbDimStyleTable
 71
    1
  0
DIMSTYLE
105
4E
330
A
100
AcDbSymbolTableRecord
100
AcDbDimStyleTableRecord
  2
Standard
 70
    0
 40
1
 41
2.5
 42
0.625
 43
0.38
 44
1.25
 45
0
 46
0
 47
0
 48
0
 49
1
140
2.5
141
0.09
142
0
143
25.4
144
1
145
0
146
1
147
0.625
148
0
 71
    0
 72
    0
 73
    0
 74
    1
 75
    0
 76
    0
 77
    0
 78
    1
 79
    0
170
    0
171
    2
172
    0
173
    0
174
    0
175
    0
176
    0
177
    0
178
    0
179
    2
271
    1
272
    4
273
    2
274
    2
275
    0
276
    0
277
    2
278
    0
279
    0
280
    0
281
    0
282
    0
283
    1
284
    0
285
    0
286
    0
288
    0
289
    3
340
4C
  0
ENDTAB
  0
TABLE
  2
BLOCK_RECORD
  5
1
330
0
100
AcDbSymbolTable
 70
    2
  0
BLOCK_RECORD
  5
1F
330
1
100
AcDbSymbolTableRecord
100
AcDbBlockTableRecord
  2
*Model_Space
 70
    0
280
    1
281
    0
  0
BLOCK_RECORD
  5
1E
330
1
100
AcDbSymbolTableRecord
100
AcDbBlockTableRecord
  2
*Paper_Space
 70
    0
280
    1
281
    0
  0
BLOCK_RECORD
  5
4F
330
1
100
AcDbSymbolTableRecord
100
AcDbBlockTableRecord
  2
*D18
 70
    0
280
    1
281
    0
  0
BLOCK_RECORD
  5
52
330
1
100
AcDbSymbolTableRecord
100
AcDbBlockTableRecord
  2
*D28
 70
    0
280
    1
281
    0
  0
BLOCK_RECORD
  5
55
330
1
100
AcDbSymbolTableRecord
100
AcDbBlockTableRecord
  2
*D38
 70
    0
280
    1
281
    0
  0
BLOCK_RECORD
  5
58
330
1
100
AcDbSymbolTableRecord
100
AcDbBlockTableRecord
  2
*D6
 70
    0
280
    1
281
    0
  0
BLOCK_RECORD
  5
5B
330
1
100
AcDbSymbolTableRecord
100
AcDbBlockTableRecord
  2
*D13
 70
    0
280
    1
281
    0
  0
BLOCK_RECORD
  5
5E
330
1
100
AcDbSymbolTableRecord
100
AcDbBlockTableRecord
  2
*D39
 70
    0
280
    1
281
    0
  0
BLOCK_RECORD
  5
61
330
1
100
AcDbSymbolTableRecord
100
AcDbBlockTableRecord
  2
*D12
 70
    0
280
    1
281
    0
  0
BLOCK_RECORD
  5
64
330
1
100
AcDbSymbolTableRecord
100
AcDbBlockTableRecord
  2
*D33
 70
    0
280
    1
281
    0
  0
BLOCK_RECORD
  5
67
330
1
100
AcDbSymbolTableRecord
100
AcDbBlockTableRecord
  2
*D9
 70
    0
280
    1
281
    0
  0
BLOCK_RECORD
  5
6A
330
1
100
AcDbSymbolTableRecord
100
AcDbBlockTableRecord
  2
*D20
 70
    0
280
    1
281
    0
  0
BLOCK_RECORD
  5
6D
330
1
100
AcDbSymbolTableRecord
100
AcDbBlockTableRecord
  2
*D1
 70
    0
280
    1
281
    0
  0
BLOCK_RECORD
  5
70
330
1
100
AcDbSymbolTableRecord
100
AcDbBlockTableRecord
  2
*D26
 70
    0
280
    1
281
    0
  0
BLOCK_RECORD
  5
73
330
1
100
AcDbSymbolTableRecord
100
AcDbBlockTableRecord
  2
*D19
 70
    0
280
    1
281
    0
  0
BLOCK_RECORD
  5
76
330
1
100
AcDbSymbolTableRecord
100
AcDbBlockTableRecord
  2
*D3
 70
    0
280
    1
281
    0
  0
BLOCK_RECORD
  5
79
330
1
100
AcDbSymbolTableRecord
100
AcDbBlockTableRecord
  2
*D46
 70
    0
280
    1
281
    0
  0
BLOCK_RECORD
  5
7C
330
1
100
AcDbSymbolTableRecord
100
AcDbBlockTableRecord
  2
*D32
 70
    0
280
    1
281
    0
  0
BLOCK_RECORD
  5
7F
330
1
100
AcDbSymbolTableRecord
100
AcDbBlockTableRecord
  2
*D34
 70
    0
280
    1
281
    0
  0
BLOCK_RECORD
  5
82
330
1
100
AcDbSymbolTableRecord
100
AcDbBlockTableRecord
  2
*D14
 70
    0
280
    1
281
    0
  0
BLOCK_RECORD
  5
85
330
1
100
AcDbSymbolTableRecord
100
AcDbBlockTableRecord
  2
*D43
 70
    0
280
    1
281
    0
  0
BLOCK_RECORD
  5
88
330
1
100
AcDbSymbolTableRecord
100
AcDbBlockTableRecord
  2
*D2
 70
    0
280
    1
281
    0
  0
BLOCK_RECORD
  5
8B
330
1
100
AcDbSymbolTableRecord
100
AcDbBlockTableRecord
  2
*D4
 70
    0
280
    1
281
    0
  0
BLOCK_RECORD
  5
8E
330
1
100
AcDbSymbolTableRecord
100
AcDbBlockTableRecord
  2
*D22
 70
    0
280
    1
281
    0
  0
BLOCK_RECORD
  5
91
330
1
100
AcDbSymbolTableRecord
100
AcDbBlockTableRecord
  2
*D29
 70
    0
280
    1
281
    0
  0
BLOCK_RECORD
  5
94
330
1
100
AcDbSymbolTableRecord
100
AcDbBlockTableRecord
  2
*D31
 70
    0
280
    1
281
    0
  0
BLOCK_RECORD
  5
97
330
1
100
AcDbSymbolTableRecord
100
AcDbBlockTableRecord
  2
*D24
 70
    0
280
    1
281
    0
  0
BLOCK_RECORD
  5
9A
330
1
100
AcDbSymbolTableRecord
100
AcDbBlockTableRecord
  2
*D21
 70
    0
280
    1
281
    0
  0
BLOCK_RECORD
  5
9D
330
1
100
AcDbSymbolTableRecord
100
AcDbBlockTableRecord
  2
*D7
 70
    0
280
    1
281
    0
  0
BLOCK_RECORD
  5
A0
330
1
100
AcDbSymbolTableRecord
100
AcDbBlockTableRecord
  2
*D45
 70
    0
280
    1
281
    0
  0
BLOCK_RECORD
  5
A3
330
1
100
AcDbSymbolTableRecord
100
AcDbBlockTableRecord
  2
*D8
 70
    0
280
    1
281
    0
  0
BLOCK_RECORD
  5
A6
330
1
100
AcDbSymbolTableRecord
100
AcDbBlockTableRecord
  2
*D25
 70
    0
280
    1
281
    0
  0
BLOCK_RECORD
  5
A9
330
1
100
AcDbSymbolTableRecord
100
AcDbBlockTableRecord
  2
*D44
 70
    0
280
    1
281
    0
  0
BLOCK_RECORD
  5
AC
330
1
100
AcDbSymbolTableRecord
100
AcDbBlockTableRecord
  2
*D23
 70
    0
280
    1
281
    0
  0
BLOCK_RECORD
  5
AF
330
1
100
AcDbSymbolTableRecord
100
AcDbBlockTableRecord
  2
*D35
 70
    0
280
    1
281
    0
  0
BLOCK_RECORD
  5
B2
330
1
100
AcDbSymbolTableRecord
100
AcDbBlockTableRecord
  2
*D37
 70
    0
280
    1
281
    0
  0
BLOCK_RECORD
  5
B5
330
1
100
AcDbSymbolTableRecord
100
AcDbBlockTableRecord
  2
*D15
 70
    0
280
    1
281
    0
  0
BLOCK_RECORD
  5
B8
330
1
100
AcDbSymbolTableRecord
100
AcDbBlockTableRecord
  2
*D41
 70
    0
280
    1
281
    0
  0
BLOCK_RECORD
  5
BB
330
1
100
AcDbSymbolTableRecord
100
AcDbBlockTableRecord
  2
*D11
 70
    0
280
    1
281
    0
  0
BLOCK_RECORD
  5
BE
330
1
100
AcDbSymbolTableRecord
100
AcDbBlockTableRecord
  2
*D36
 70
    0
280
    1
281
    0
  0
BLOCK_RECORD
  5
C1
330
1
100
AcDbSymbolTableRecord
100
AcDbBlockTableRecord
  2
*D17
 70
    0
280
    1
281
    0
  0
BLOCK_RECORD
  5
C4
330
1
100
AcDbSymbolTableRecord
100
AcDbBlockTableRecord
  2
*D5
 70
    0
280
    1
281
    0
  0
BLOCK_RECORD
  5
C7
330
1
100
AcDbSymbolTableRecord
100
AcDbBlockTableRecord
  2
*D42
 70
    0
280
    1
281
    0
  0
BLOCK_RECORD
  5
CA
330
1
100
AcDbSymbolTableRecord
100
AcDbBlockTableRecord
  2
*D10
 70
    0
280
    1
281
    0
  0
BLOCK_RECORD
  5
CD
330
1
100
AcDbSymbolTableRecord
100
AcDbBlockTableRecord
  2
*D16
 70
    0
280
    1
281
    0
  0
BLOCK_RECORD
  5
D0
330
1
100
AcDbSymbolTableRecord
100
AcDbBlockTableRecord
  2
*D40
 70
    0
280
    1
281
    0
  0
BLOCK_RECORD
  5
D3
330
1
100
AcDbSymbolTableRecord
100
AcDbBlockTableRecord
  2
*D30
 70
    0
280
    1
281
    0
  0
BLOCK_RECORD
  5
D6
330
1
100
AcDbSymbolTableRecord
100
AcDbBlockTableRecord
  2
*D27
 70
    0
280
    1
281
    0
  0
BLOCK_RECORD
  5
D9
330
1
100
AcDbSymbolTableRecord
100
AcDbBlockTableRecord
  2
*D47
 70
    0
280
    1
281
    0
  0
ENDTAB
  0
ENDSEC
  0
SECTION
  2
BLOCKS
  0
BLOCK
  5
20
330
1F
100
AcDbEntity
  8
0
100
AcDbBlockBegin
  2
*Model_Space
 70
    0
 10
0
 20
0
 30
0
  3
*Model_Space
  1

  0
ENDBLK
  5
21
330
1F
100
AcDbEntity
  8
0
100
AcDbBlockEnd
  0
BLOCK
  5
1C
330
1B
100
AcDbEntity
  8
0
100
AcDbBlockBegin
  2
*Paper_Space
 70
    0
 10
0
 20
0
 30
0
  3
*Paper_Space
  1

  0
ENDBLK
  5
1D
330
1F
100
AcDbEntity
  8
0
100
AcDbBlockEnd
  0
BLOCK
  5
50
330
4F
100
AcDbEntity
  8
0
100
AcDbBlockBegin
  2
*D18
 70
    1
 10
0
 20
0
  3
*D18
  1

  0
LINE
  5
DC
100
AcDbEntity
  8
quote
  6
ByBlock
 62
    0
370
   -2
100
AcDbLine
 10
130
 20
90
 11
110
 21
90
  0
MTEXT
  5
DD
100
AcDbEntity
  8
quote
  6
CONTINUOUS
 62
    0
370
   -2
100
AcDbMText
 10
120
 20
91.875
 30
0
 40
2.5
 41
5.833333333333334
 71
    5
 72
    1
  1
20.0
  7
standard
210
0
220
0
230
1
 50
0
 73
    2
 44
1
  0
SOLID
  5
DE
100
AcDbEntity
  8
quote
  6
ByBlock
 62
    0
370
   -2
100
AcDbTrace
 10
130
 20
90
 30
0
 11
127.5
 21
89.58371534222717
 31
0
 12
127.5
 22
90.41628465777283
 32
0
 13
127.5
 23
90.41628465777283
 33
0
  0
SOLID
  5
DF
100
AcDbEntity
  8
quote
  6
ByBlock
 62
    0
370
   -2
100
AcDbTrace
 10
110
 20
90
 30
0
 11
112.5
 21
90.41628465777283
 31
0
 12
112.5
 22
89.58371534222717
 32
0
 13
112.5
 23
89.58371534222717
 33
0
  0
LINE
  5
E0
100
AcDbEntity
  8
quote
  6
ByBlock
 62
    0
370
   -2
100
AcDbLine
 10
130
 20
103.375
 11
130
 21
88.75
  0
LINE
  5
E1
100
AcDbEntity
  8
quote
  6
ByBlock
 62
    0
370
   -2
100
AcDbLine
 10
110
 20
103.375
 11
110
 21
88.75
  0
ENDBLK
  5
51
330
4F
100
AcDbEntity
  8
0
100
AcDbBlockEnd
  0
BLOCK
  5
53
330
52
100
AcDbEntity
  8
0
100
AcDbBlockBegin
  2
*D28
 70
    1
 10
0
 20
0
  3
*D28
  1

  0
LINE
  5
E2
100
AcDbEntity
  8
quote
  6
ByBlock
 62
    0
370
   -2
100
AcDbLine
 10
147
 20
25
 11
147
 21
47
  0
MTEXT
  5
E3
100
AcDbEntity
  8
quote
  6
CONTINUOUS
 62
    0
370
   -2
100
AcDbMText
 10
145.125
 20
36
 30
0
 40
2.5
 41
5.833333333333334
 71
    5
 72
    1
  1
22.0
  7
standard
210
0
220
0
230
1
 50
90
 73
    2
 44
1
  0
SOLID
  5
E4
100
AcDbEntity
  8
quote
  6
ByBlock
 62
    0
370
   -2
100
AcDbTrace
 10
147
 20
25
 30
0
 11
146.5837153422272
 21
27.5
 31
0
 12
147.4162846577728
 22
27.5
 32
0
 13
147.4162846577728
 23
27.5
 33
0
  0
SOLID
  5
E5
100
AcDbEntity
  8
quote
  6
ByBlock
 62
    0
370
   -2
100
AcDbTrace
 10
147
 20
47
 30
0
 11
147.4162846577728
 21
44.5
 31
0
 12
146.5837153422272
 22
44.5
 32
0
 13
146.5837153422272
 23
44.5
 33
0
  0
LINE
  5
E6
100
AcDbEntity
  8
quote
  6
ByBlock
 62
    0
370
   -2
100
AcDbLine
 10
130.625
 20
25
 11
148.25
 21
25
  0
LINE
  5
E7
100
AcDbEntity
  8
quote
  6
ByBlock
 62
    0
370
   -2
100
AcDbLine
 10
130.625
 20
47
 11
148.25
 21
47
  0
ENDBLK
  5
54
330
52
100
AcDbEntity
  8
0
100
AcDbBlockEnd
  0
BLOCK
  5
56
330
55
100
AcDbEntity
  8
0
100
AcDbBlockBegin
  2
*D38
 70
    1
 10
0
 20
0
  3
*D38
  1

  0
LINE
  5
E8
100
AcDbEntity
  8
quote
  6
ByBlock
 62
    0
370
   -2
100
AcDbLine
 10
159
 20
78
 11
173
 21
78
  0
MTEXT
  5
E9
100
AcDbEntity
  8
quote
  6
CONTINUOUS
 62
    0
370
   -2
100
AcDbMText
 10
170.7083333333333
 20
79.875
 30
0
 40
2.5
 41
4.166666666666667
 71
    5
 72
    1
  1
4.0
  7
standard
210
0
220
0
230
1
 50
0
 73
    2
 44
1
  0
SOLID
  5
EA
100
AcDbEntity
  8
quote
  6
ByBlock
 62
    0
370
   -2
100
AcDbTrace
 10
164
 20
78
 30
0
 11
161.5
 21
77.58371534222717
 31
0
 12
161.5
 22
78.41628465777283
 32
0
 13
161.5
 23
78.41628465777283
 33
0
  0
SOLID
  5
EB
100
AcDbEntity
  8
quote
  6
ByBlock
 62
    0
370
   -2
100
AcDbTrace
 10
168
 20
78
 30
0
 11
170.5
 21
78.41628465777283
 31
0
 12
170.5
 22
77.58371534222717
 32
0
 13
170.5
 23
77.58371534222717
 33
0
  0
LINE
  5
EC
100
AcDbEntity
  8
quote
  6
ByBlock
 62
    0
370
   -2
100
AcDbLine
 10
164
 20
68.625
 11
164
 21
79.25
  0
LINE
  5
ED
100
AcDbEntity
  8
quote
  6
ByBlock
 62
    0
370
   -2
100
AcDbLine
 10
168
 20
68.625
 11
168
 21
79.25
  0
ENDBLK
  5
57
330
55
100
AcDbEntity
  8
0
100
AcDbBlockEnd
  0
BLOCK
  5
59
330
58
100
AcDbEntity
  8
0
100
AcDbBlockBegin
  2
*D6
 70
    1
 10
0
 20
0
  3
*D6
  1

  0
LINE
  5
EE
100
AcDbEntity
  8
quote
  6
ByBlock
 62
    0
370
   -2
100
AcDbLine
 10
70
 20
17
 11
70
 21
37
  0
MTEXT
  5
EF
100
AcDbEntity
  8
quote
  6
CONTINUOUS
 62
    0
370
   -2
100
AcDbMText
 10
68.125
 20
27
 30
0
 40
2.5
 41
5.833333333333334
 71
    5
 72
    1
  1
20.0
  7
standard
210
0
220
0
230
1
 50
90
 73
    2
 44
1
  0
SOLID
  5
F0
100
AcDbEntity
  8
quote
  6
ByBlock
 62
    0
370
   -2
100
AcDbTrace
 10
70
 20
17
 30
0
 11
69.58371534222717
 21
19.5
 31
0
 12
70.41628465777283
 22
19.5
 32
0
 13
70.41628465777283
 23
19.5
 33
0
  0
SOLID
  5
F1
100
AcDbEntity
  8
quote
  6
ByBlock
 62
    0
370
   -2
100
AcDbTrace
 10
70
 20
37
 30
0
 11
70.41628465777283
 21
34.5
 31
0
 12
69.58371534222717
 22
34.5
 32
0
 13
69.58371534222717
 23
34.5
 33
0
  0
LINE
  5
F2
100
AcDbEntity
  8
quote
  6
ByBlock
 62
    0
370
   -2
100
AcDbLine
 10
27.625
 20
17
 11
71.25
 21
17
  0
LINE
  5
F3
100
AcDbEntity
  8
quote
  6
ByBlock
 62
    0
370
   -2
100
AcDbLine
 10
27.625
 20
37
 11
71.25
 21
37
  0
ENDBLK
  5
5A
330
58
100
AcDbEntity
  8
0
100
AcDbBlockEnd
  0
BLOCK
  5
5C
330
5B
100
AcDbEntity
  8
0
100
AcDbBlockBegin
  2
*D13
 70
    1
 10
0
 20
0
  3
*D13
  1

  0
LINE
  5
F4
100
AcDbEntity
  8
quote
  6
ByBlock
 62
    0
370
   -2
100
AcDbLine
 10
132
 20
-5
 11
142
 21
-5
  0
MTEXT
  5
F5
100
AcDbEntity
  8
quote
  6
CONTINUOUS
 62
    0
370
   -2
100
AcDbMText
 10
137
 20
-3.125
 30
0
 40
2.5
 41
5.277777777777779
 71
    5
 72
    1
  1
10.0
  7
standard
210
0
220
0
230
1
 50
0
 73
    2
 44
1
  0
SOLID
  5
F6
100
AcDbEntity
  8
quote
  6
ByBlock
 62
    0
370
   -2
100
AcDbTrace
 10
132
 20
-5
 30
0
 11
134.5
 21
-4.58371534222716
 31
0
 12
134.5
 22
-5.416284657772841
 32
0
 13
134.5
 23
-5.416284657772841
 33
0
  0
SOLID
  5
F7
100
AcDbEntity
  8
quote
  6
ByBlock
 62
    0
370
   -2
100
AcDbTrace
 10
142
 20
-5
 30
0
 11
139.5
 21
-5.416284657772841
 31
0
 12
139.5
 22
-4.583715342227159
 32
0
 13
139.5
 23
-4.583715342227159
 33
0
  0
LINE
  5
F8
100
AcDbEntity
  8
quote
  6
ByBlock
 62
    0
370
   -2
100
AcDbLine
 10
132
 20
3.375
 11
132
 21
-6.25
  0
LINE
  5
F9
100
AcDbEntity
  8
quote
  6
ByBlock
 62
    0
370
   -2
100
AcDbLine
 10
142
 20
3.375
 11
142
 21
-6.25
  0
ENDBLK
  5
5D
330
5B
100
AcDbEntity
  8
0
100
AcDbBlockEnd
  0
BLOCK
  5
5F
330
5E
100
AcDbEntity
  8
0
100
AcDbBlockBegin
  2
*D39
 70
    1
 10
0
 20
0
  3
*D39
  1

  0
LINE
  5
FA
100
AcDbEntity
  8
quote
  6
ByBlock
 62
    0
370
   -2
100
AcDbLine
 10
160
 20
85
 11
168
 21
85
  0
MTEXT
  5
FB
100
AcDbEntity
  8
quote
  6
CONTINUOUS
 62
    0
370
   -2
100
AcDbMText
 10
164
 20
86.875
 30
0
 40
2.5
 41
3.888888888888889
 71
    5
 72
    1
  1
8.0
  7
standard
210
0
220
0
230
1
 50
0
 73
    2
 44
1
  0
SOLID
  5
FC
100
AcDbEntity
  8
quote
  6
ByBlock
 62
    0
370
   -2
100
AcDbTrace
 10
160
 20
85
 30
0
 11
162.5
 21
85.41628465777283
 31
0
 12
162.5
 22
84.58371534222717
 32
0
 13
162.5
 23
84.58371534222717
 33
0
  0
SOLID
  5
FD
100
AcDbEntity
  8
quote
  6
ByBlock
 62
    0
370
   -2
100
AcDbTrace
 10
168
 20
85
 30
0
 11
165.5
 21
84.58371534222717
 31
0
 12
165.5
 22
85.41628465777283
 32
0
 13
165.5
 23
85.41628465777283
 33
0
  0
LINE
  5
FE
100
AcDbEntity
  8
quote
  6
ByBlock
 62
    0
370
   -2
100
AcDbLine
 10
160
 20
25.625
 11
160
 21
86.25
  0
LINE
  5
FF
100
AcDbEntity
  8
quote
  6
ByBlock
 62
    0
370
   -2
100
AcDbLine
 10
168
 20
68.625
 11
168
 21
86.25
  0
ENDBLK
  5
60
330
5E
100
AcDbEntity
  8
0
100
AcDbBlockEnd
  0
BLOCK
  5
62
330
61
100
AcDbEntity
  8
0
100
AcDbBlockBegin
  2
*D12
 70
    1
 10
0
 20
0
  3
*D12
  1

  0
LINE
  5
100
100
AcDbEntity
  8
quote
  6
ByBlock
 62
    0
370
   -2
100
AcDbLine
 10
120
 20
-5
 11
132
 21
-5
  0
MTEXT
  5
101
100
AcDbEntity
  8
quote
  6
CONTINUOUS
 62
    0
370
   -2
100
AcDbMText
 10
126
 20
-3.125
 30
0
 40
2.5
 41
5.277777777777779
 71
    5
 72
    1
  1
12.0
  7
standard
210
0
220
0
230
1
 50
0
 73
    2
 44
1
  0
SOLID
  5
102
100
AcDbEntity
  8
quote
  6
ByBlock
 62
    0
370
   -2
100
AcDbTrace
 10
120
 20
-5
 30
0
 11
122.5
 21
-4.58371534222716
 31
0
 12
122.5
 22
-5.416284657772841
 32
0
 13
122.5
 23
-5.416284657772841
 33
0
  0
SOLID
  5
103
100
AcDbEntity
  8
quote
  6
ByBlock
 62
    0
370
   -2
100
AcDbTrace
 10
132
 20
-5
 30
0
 11
129.5
 21
-5.416284657772841
 31
0
 12
129.5
 22
-4.583715342227159
 32
0
 13
129.5
 23
-4.583715342227159
 33
0
  0
LINE
  5
104
100
AcDbEntity
  8
quote
  6
ByBlock
 62
    0
370
   -2
100
AcDbLine
 10
120
 20
3.375
 11
120
 21
-6.25
  0
LINE
  5
105
100
AcDbEntity
  8
quote
  6
ByBlock
 62
    0
370
   -2
100
AcDbLine
 10
132
 20
-0.625
 11
132
 21
-6.25
  0
ENDBLK
  5
63
330
61
100
AcDbEntity
  8
0
100
AcDbBlockEnd
  0
BLOCK
  5
65
330
64
100
AcDbEntity
  8
0
100
AcDbBlockBegin
  2
*D33
 70
    1
 10
0
 20
0
  3
*D33
  1

  0
LINE
  5
106
100
AcDbEntity
  8
quote
  6
ByBlock
 62
    0
370
   -2
100
AcDbLine
 10
157
 20
4
 11
157
 21
25
  0
MTEXT
  5
107
100
AcDbEntity
  8
quote
  6
CONTINUOUS
 62
    0
370
   -2
100
AcDbMText
 10
155.125
 20
14.5
 30
0
 40
2.5
 41
5.277777777777779
 71
    5
 72
    1
  1
21.0
  7
standard
210
0
220
0
230
1
 50
90
 73
    2
 44
1
  0
SOLID
  5
108
100
AcDbEntity
  8
quote
  6
ByBlock
 62
    0
370
   -2
100
AcDbTrace
 10
157
 20
4
 30
0
 11
156.5837153422272
 21
6.5
 31
0
 12
157.4162846577728
 22
6.5
 32
0
 13
157.4162846577728
 23
6.5
 33
0
  0
SOLID
  5
109
100
AcDbEntity
  8
quote
  6
ByBlock
 62
    0
370
   -2
100
AcDbTrace
 10
157
 20
25
 30
0
 11
157.4162846577728
 21
22.5
 31
0
 12
156.5837153422272
 22
22.5
 32
0
 13
156.5837153422272
 23
22.5
 33
0
  0
LINE
  5
10A
100
AcDbEntity
  8
quote
  6
ByBlock
 62
    0
370
   -2
100
AcDbLine
 10
163.375
 20
4
 11
155.75
 21
4
  0
LINE
  5
10B
100
AcDbEntity
  8
quote
  6
ByBlock
 62
    0
370
   -2
100
AcDbLine
 10
163.375
 20
25
 11
155.75
 21
25
  0
ENDBLK
  5
66
330
64
100
AcDbEntity
  8
0
100
AcDbBlockEnd
  0
BLOCK
  5
68
330
67
100
AcDbEntity
  8
0
100
AcDbBlockBegin
  2
*D9
 70
    1
 10
0
 20
0
  3
*D9
  1

  0
LINE
  5
10C
100
AcDbEntity
  8
quote
  6
ByBlock
 62
    0
370
   -2
100
AcDbLine
 10
124
 20
80
 11
142
 21
80
  0
MTEXT
  5
10D
100
AcDbEntity
  8
quote
  6
CONTINUOUS
 62
    0
370
   -2
100
AcDbMText
 10
133
 20
81.875
 30
0
 40
2.5
 41
5.277777777777779
 71
    5
 72
    1
  1
18.0
  7
standard
210
0
220
0
230
1
 50
0
 73
    2
 44
1
  0
SOLID
  5
10E
100
AcDbEntity
  8
quote
  6
ByBlock
 62
    0
370
   -2
100
AcDbTrace
 10
124
 20
80
 30
0
 11
126.5
 21
80.41628465777283
 31
0
 12
126.5
 22
79.58371534222717
 32
0
 13
126.5
 23
79.58371534222717
 33
0
  0
SOLID
  5
10F
100
AcDbEntity
  8
quote
  6
ByBlock
 62
    0
370
   -2
100
AcDbTrace
 10
142
 20
80
 30
0
 11
139.5
 21
79.58371534222717
 31
0
 12
139.5
 22
80.41628465777283
 32
0
 13
139.5
 23
80.41628465777283
 33
0
  0
LINE
  5
110
100
AcDbEntity
  8
quote
  6
ByBlock
 62
    0
370
   -2
100
AcDbLine
 10
124
 20
76.625
 11
124
 21
81.25
  0
LINE
  5
111
100
AcDbEntity
  8
quote
  6
ByBlock
 62
    0
370
   -2
100
AcDbLine
 10
142
 20
76.625
 11
142
 21
81.25
  0
ENDBLK
  5
69
330
67
100
AcDbEntity
  8
0
100
AcDbBlockEnd
  0
BLOCK
  5
6B
330
6A
100
AcDbEntity
  8
0
100
AcDbBlockBegin
  2
*D20
 70
    1
 10
0
 20
0
  3
*D20
  1

  0
LINE
  5
112
100
AcDbEntity
  8
quote
  6
ByBlock
 62
    0
370
   -2
100
AcDbLine
 10
106
 20
104
 11
106
 21
138
  0
MTEXT
  5
113
100
AcDbEntity
  8
quote
  6
CONTINUOUS
 62
    0
370
   -2
100
AcDbMText
 10
104.125
 20
121
 30
0
 40
2.5
 41
6.111111111111267
 71
    5
 72
    1
  1
34.0
  7
standard
210
0
220
0
230
1
 50
90
 73
    2
 44
1
  0
SOLID
  5
114
100
AcDbEntity
  8
quote
  6
ByBlock
 62
    0
370
   -2
100
AcDbTrace
 10
106
 20
104
 30
0
 11
105.5837153422272
 21
106.5
 31
0
 12
106.4162846577728
 22
106.5
 32
0
 13
106.4162846577728
 23
106.5
 33
0
  0
SOLID
  5
115
100
AcDbEntity
  8
quote
  6
ByBlock
 62
    0
370
   -2
100
AcDbTrace
 10
106
 20
138
 30
0
 11
106.4162846577728
 21
135.5
 31
0
 12
105.5837153422272
 22
135.5
 32
0
 13
105.5837153422272
 23
135.5
 33
0
  0
LINE
  5
116
100
AcDbEntity
  8
quote
  6
ByBlock
 62
    0
370
   -2
100
AcDbLine
 10
129.375
 20
104
 11
104.75
 21
104
  0
LINE
  5
117
100
AcDbEntity
  8
quote
  6
ByBlock
 62
    0
370
   -2
100
AcDbLine
 10
123.375
 20
138
 11
104.75
 21
138
  0
ENDBLK
  5
6C
330
6A
100
AcDbEntity
  8
0
100
AcDbBlockEnd
  0
BLOCK
  5
6E
330
6D
100
AcDbEntity
  8
0
100
AcDbBlockBegin
  2
*D1
 70
    1
 10
0
 20
0
  3
*D1
  1

  0
LINE
  5
118
100
AcDbEntity
  8
quote
  6
ByBlock
 62
    0
370
   -2
100
AcDbLine
 10
0
 20
60
 11
27
 21
60
  0
MTEXT
  5
119
100
AcDbEntity
  8
quote
  6
CONTINUOUS
 62
    0
370
   -2
100
AcDbMText
 10
13.5
 20
61.875
 30
0
 40
2.5
 41
5.833333333333334
 71
    5
 72
    1
  1
27.0
  7
standard
210
0
220
0
230
1
 50
0
 73
    2
 44
1
  0
SOLID
  5
11A
100
AcDbEntity
  8
quote
  6
ByBlock
 62
    0
370
   -2
100
AcDbTrace
 10
0
 20
60
 30
0
 11
2.5
 21
60.41628465777284
 31
0
 12
2.5
 22
59.58371534222716
 32
0
 13
2.5
 23
59.58371534222716
 33
0
  0
SOLID
  5
11B
100
AcDbEntity
  8
quote
  6
ByBlock
 62
    0
370
   -2
100
AcDbTrace
 10
27
 20
60
 30
0
 11
24.5
 21
59.58371534222716
 31
0
 12
24.5
 22
60.41628465777284
 32
0
 13
24.5
 23
60.41628465777284
 33
0
  0
LINE
  5
11C
100
AcDbEntity
  8
quote
  6
ByBlock
 62
    0
370
   -2
100
AcDbLine
 10
3.826894855694929e-17
 20
27.625
 11
7.653789711389858e-17
 21
61.25
  0
LINE
  5
11D
100
AcDbEntity
  8
quote
  6
ByBlock
 62
    0
370
   -2
100
AcDbLine
 10
27
 20
27.625
 11
27
 21
61.25
  0
ENDBLK
  5
6F
330
6D
100
AcDbEntity
  8
0
100
AcDbBlockEnd
  0
BLOCK
  5
71
330
70
100
AcDbEntity
  8
0
100
AcDbBlockBegin
  2
*D26
 70
    1
 10
0
 20
0
  3
*D26
  1

  0
LINE
  5
11E
100
AcDbEntity
  8
quote
  6
ByBlock
 62
    0
370
   -2
100
AcDbLine
 10
116
 20
80
 11
124
 21
80
  0
MTEXT
  5
11F
100
AcDbEntity
  8
quote
  6
CONTINUOUS
 62
    0
370
   -2
100
AcDbMText
 10
120
 20
81.875
 30
0
 40
2.5
 41
3.888888888888889
 71
    5
 72
    1
  1
8.0
  7
standard
210
0
220
0
230
1
 50
0
 73
    2
 44
1
  0
SOLID
  5
120
100
AcDbEntity
  8
quote
  6
ByBlock
 62
    0
370
   -2
100
AcDbTrace
 10
116
 20
80
 30
0
 11
118.5
 21
80.41628465777283
 31
0
 12
118.5
 22
79.58371534222717
 32
0
 13
118.5
 23
79.58371534222717
 33
0
  0
SOLID
  5
121
100
AcDbEntity
  8
quote
  6
ByBlock
 62
    0
370
   -2
100
AcDbTrace
 10
124
 20
80
 30
0
 11
121.5
 21
79.58371534222717
 31
0
 12
121.5
 22
80.41628465777283
 32
0
 13
121.5
 23
80.41628465777283
 33
0
  0
LINE
  5
122
100
AcDbEntity
  8
quote
  6
ByBlock
 62
    0
370
   -2
100
AcDbLine
 10
116
 20
68.625
 11
116
 21
81.25
  0
LINE
  5
123
100
AcDbEntity
  8
quote
  6
ByBlock
 62
    0
370
   -2
100
AcDbLine
 10
124
 20
68.625
 11
124
 21
81.25
  0
ENDBLK
  5
72
330
70
100
AcDbEntity
  8
0
100
AcDbBlockEnd
  0
BLOCK
  5
74
330
73
100
AcDbEntity
  8
0
100
AcDbBlockBegin
  2
*D19
 70
    1
 10
0
 20
0
  3
*D19
  1

  0
LINE
  5
124
100
AcDbEntity
  8
quote
  6
ByBlock
 62
    0
370
   -2
100
AcDbLine
 10
106
 20
95
 11
106
 21
109
  0
MTEXT
  5
125
100
AcDbEntity
  8
quote
  6
CONTINUOUS
 62
    0
370
   -2
100
AcDbMText
 10
104.125
 20
106.7083333333333
 30
0
 40
2.5
 41
4.166666666666667
 71
    5
 72
    1
  1
4.0
  7
standard
210
0
220
0
230
1
 50
90
 73
    2
 44
1
  0
SOLID
  5
126
100
AcDbEntity
  8
quote
  6
ByBlock
 62
    0
370
   -2
100
AcDbTrace
 10
106
 20
100
 30
0
 11
106.4162846577728
 21
97.5
 31
0
 12
105.5837153422272
 22
97.5
 32
0
 13
105.5837153422272
 23
97.5
 33
0
  0
SOLID
  5
127
100
AcDbEntity
  8
quote
  6
ByBlock
 62
    0
370
   -2
100
AcDbTrace
 10
106
 20
104
 30
0
 11
105.5837153422272
 21
106.5
 31
0
 12
106.4162846577728
 22
106.5
 32
0
 13
106.4162846577728
 23
106.5
 33
0
  0
LINE
  5
128
100
AcDbEntity
  8
quote
  6
ByBlock
 62
    0
370
   -2
100
AcDbLine
 10
123.375
 20
100
 11
104.75
 21
100
  0
LINE
  5
129
100
AcDbEntity
  8
quote
  6
ByBlock
 62
    0
370
   -2
100
AcDbLine
 10
123.375
 20
104
 11
104.75
 21
104
  0
ENDBLK
  5
75
330
73
100
AcDbEntity
  8
0
100
AcDbBlockEnd
  0
BLOCK
  5
77
330
76
100
AcDbEntity
  8
0
100
AcDbBlockBegin
  2
*D3
 70
    1
 10
0
 20
0
  3
*D3
  1

  0
LINE
  5
12A
100
AcDbEntity
  8
quote
  6
ByBlock
 62
    0
370
   -2
100
AcDbLine
 10
0
 20
70
 11
54
 21
70
  0
MTEXT
  5
12B
100
AcDbEntity
  8
quote
  6
CONTINUOUS
 62
    0
370
   -2
100
AcDbMText
 10
27
 20
71.875
 30
0
 40
2.5
 41
6.111111111111267
 71
    5
 72
    1
  1
54.0
  7
standard
210
0
220
0
230
1
 50
0
 73
    2
 44
1
  0
SOLID
  5
12C
100
AcDbEntity
  8
quote
  6
ByBlock
 62
    0
370
   -2
100
AcDbTrace
 10
0
 20
70
 30
0
 11
2.5
 21
70.41628465777283
 31
0
 12
2.5
 22
69.58371534222717
 32
0
 13
2.5
 23
69.58371534222717
 33
0
  0
SOLID
  5
12D
100
AcDbEntity
  8
quote
  6
ByBlock
 62
    0
370
   -2
100
AcDbTrace
 10
54
 20
70
 30
0
 11
51.5
 21
69.58371534222717
 31
0
 12
51.5
 22
70.41628465777283
 32
0
 13
51.5
 23
70.41628465777283
 33
0
  0
LINE
  5
12E
100
AcDbEntity
  8
quote
  6
ByBlock
 62
    0
370
   -2
100
AcDbLine
 10
3.826894855694929e-17
 20
27.625
 11
7.653789711389858e-17
 21
71.25
  0
LINE
  5
12F
100
AcDbEntity
  8
quote
  6
ByBlock
 62
    0
370
   -2
100
AcDbLine
 10
54
 20
27.625
 11
54
 21
71.25
  0
ENDBLK
  5
78
330
76
100
AcDbEntity
  8
0
100
AcDbBlockEnd
  0
BLOCK
  5
7A
330
79
100
AcDbEntity
  8
0
100
AcDbBlockBegin
  2
*D46
 70
    1
 10
0
 20
0
  3
*D46
  1

  0
LINE
  5
130
100
AcDbEntity
  8
quote
  6
ByBlock
 62
    0
370
   -2
100
AcDbLine
 10
15
 20
-11
 11
1
 21
-11
  0
MTEXT
  5
131
100
AcDbEntity
  8
quote
  6
CONTINUOUS
 62
    0
370
   -2
100
AcDbMText
 10
12.70833333333333
 20
-9.125
 30
0
 40
2.5
 41
4.166666666666667
 71
    5
 72
    1
  1
4.0
  7
standard
210
0
220
0
230
1
 50
0
 73
    2
 44
1
  0
SOLID
  5
132
100
AcDbEntity
  8
quote
  6
ByBlock
 62
    0
370
   -2
100
AcDbTrace
 10
10
 20
-11
 30
0
 11
12.5
 21
-10.58371534222716
 31
0
 12
12.5
 22
-11.41628465777284
 32
0
 13
12.5
 23
-11.41628465777284
 33
0
  0
SOLID
  5
133
100
AcDbEntity
  8
quote
  6
ByBlock
 62
    0
370
   -2
100
AcDbTrace
 10
6
 20
-11
 30
0
 11
3.5
 21
-11.41628465777284
 31
0
 12
3.5
 22
-10.58371534222716
 32
0
 13
3.5
 23
-10.58371534222716
 33
0
  0
LINE
  5
134
100
AcDbEntity
  8
quote
  6
ByBlock
 62
    0
370
   -2
100
AcDbLine
 10
10
 20
26.375
 11
10
 21
-12.25
  0
LINE
  5
135
100
AcDbEntity
  8
quote
  6
ByBlock
 62
    0
370
   -2
100
AcDbLine
 10
6
 20
26.375
 11
6
 21
-12.25
  0
ENDBLK
  5
7B
330
79
100
AcDbEntity
  8
0
100
AcDbBlockEnd
  0
BLOCK
  5
7D
330
7C
100
AcDbEntity
  8
0
100
AcDbBlockBegin
  2
*D32
 70
    1
 10
0
 20
0
  3
*D32
  1

  0
LINE
  5
136
100
AcDbEntity
  8
quote
  6
ByBlock
 62
    0
370
   -2
100
AcDbLine
 10
135
 20
57.125
 11
121
 21
57.125
  0
MTEXT
  5
137
100
AcDbEntity
  8
quote
  6
CONTINUOUS
 62
    0
370
   -2
100
AcDbMText
 10
132.7083333333333
 20
59
 30
0
 40
2.5
 41
4.166666666666667
 71
    5
 72
    1
  1
4.0
  7
standard
210
0
220
0
230
1
 50
0
 73
    2
 44
1
  0
SOLID
  5
138
100
AcDbEntity
  8
quote
  6
ByBlock
 62
    0
370
   -2
100
AcDbTrace
 10
130
 20
57.125
 30
0
 11
132.5
 21
57.54128465777284
 31
0
 12
132.5
 22
56.70871534222716
 32
0
 13
132.5
 23
56.70871534222716
 33
0
  0
SOLID
  5
139
100
AcDbEntity
  8
quote
  6
ByBlock
 62
    0
370
   -2
100
AcDbTrace
 10
126
 20
57.125
 30
0
 11
123.5
 21
56.70871534222716
 31
0
 12
123.5
 22
57.54128465777284
 32
0
 13
123.5
 23
57.54128465777284
 33
0
  0
LINE
  5
13A
100
AcDbEntity
  8
quote
  6
ByBlock
 62
    0
370
   -2
100
AcDbLine
 10
130
 20
52.75
 11
130
 21
58.375
  0
LINE
  5
13B
100
AcDbEntity
  8
quote
  6
ByBlock
 62
    0
370
   -2
100
AcDbLine
 10
126
 20
52.75
 11
126
 21
58.375
  0
ENDBLK
  5
7E
330
7C
100
AcDbEntity
  8
0
100
AcDbBlockEnd
  0
BLOCK
  5
80
330
7F
100
AcDbEntity
  8
0
100
AcDbBlockBegin
  2
*D34
 70
    1
 10
0
 20
0
  3
*D34
  1

  0
LINE
  5
13C
100
AcDbEntity
  8
quote
  6
ByBlock
 62
    0
370
   -2
100
AcDbLine
 10
157
 20
25
 11
157
 21
47
  0
MTEXT
  5
13D
100
AcDbEntity
  8
quote
  6
CONTINUOUS
 62
    0
370
   -2
100
AcDbMText
 10
155.125
 20
36
 30
0
 40
2.5
 41
5.833333333333334
 71
    5
 72
    1
  1
22.0
  7
standard
210
0
220
0
230
1
 50
90
 73
    2
 44
1
  0
SOLID
  5
13E
100
AcDbEntity
  8
quote
  6
ByBlock
 62
    0
370
   -2
100
AcDbTrace
 10
157
 20
25
 30
0
 11
156.5837153422272
 21
27.5
 31
0
 12
157.4162846577728
 22
27.5
 32
0
 13
157.4162846577728
 23
27.5
 33
0
  0
SOLID
  5
13F
100
AcDbEntity
  8
quote
  6
ByBlock
 62
    0
370
   -2
100
AcDbTrace
 10
157
 20
47
 30
0
 11
157.4162846577728
 21
44.5
 31
0
 12
156.5837153422272
 22
44.5
 32
0
 13
156.5837153422272
 23
44.5
 33
0
  0
LINE
  5
140
100
AcDbEntity
  8
quote
  6
ByBlock
 62
    0
370
   -2
100
AcDbLine
 10
163.375
 20
25
 11
155.75
 21
25
  0
LINE
  5
141
100
AcDbEntity
  8
quote
  6
ByBlock
 62
    0
370
   -2
100
AcDbLine
 10
159.375
 20
47
 11
155.75
 21
47
  0
ENDBLK
  5
81
330
7F
100
AcDbEntity
  8
0
100
AcDbBlockEnd
  0
BLOCK
  5
83
330
82
100
AcDbEntity
  8
0
100
AcDbBlockBegin
  2
*D14
 70
    1
 10
0
 20
0
  3
*D14
  1

  0
LINE
  5
142
100
AcDbEntity
  8
quote
  6
ByBlock
 62
    0
370
   -2
100
AcDbLine
 10
110
 20
-12
 11
142
 21
-12
  0
MTEXT
  5
143
100
AcDbEntity
  8
quote
  6
CONTINUOUS
 62
    0
370
   -2
100
AcDbMText
 10
126
 20
-10.125
 30
0
 40
2.5
 41
5.833333333333488
 71
    5
 72
    1
  1
32.0
  7
standard
210
0
220
0
230
1
 50
0
 73
    2
 44
1
  0
SOLID
  5
144
100
AcDbEntity
  8
quote
  6
ByBlock
 62
    0
370
   -2
100
AcDbTrace
 10
110
 20
-12
 30
0
 11
112.5
 21
-11.58371534222716
 31
0
 12
112.5
 22
-12.41628465777284
 32
0
 13
112.5
 23
-12.41628465777284
 33
0
  0
SOLID
  5
145
100
AcDbEntity
  8
quote
  6
ByBlock
 62
    0
370
   -2
100
AcDbTrace
 10
142
 20
-12
 30
0
 11
139.5
 21
-12.41628465777284
 31
0
 12
139.5
 22
-11.58371534222716
 32
0
 13
139.5
 23
-11.58371534222716
 33
0
  0
LINE
  5
146
100
AcDbEntity
  8
quote
  6
ByBlock
 62
    0
370
   -2
100
AcDbLine
 10
110
 20
3.375
 11
110
 21
-13.25
  0
LINE
  5
147
100
AcDbEntity
  8
quote
  6
ByBlock
 62
    0
370
   -2
100
AcDbLine
 10
142
 20
3.375
 11
142
 21
-13.25
  0
ENDBLK
  5
84
330
82
100
AcDbEntity
  8
0
100
AcDbBlockEnd
  0
BLOCK
  5
86
330
85
100
AcDbEntity
  8
0
100
AcDbBlockBegin
  2
*D43
 70
    1
 10
0
 20
0
  3
*D43
  1

  0
LINE
  5
148
100
AcDbEntity
  8
quote
  6
ByBlock
 62
    0
370
   -2
100
AcDbLine
 10
27
 20
-5
 11
10
 21
-5
  0
MTEXT
  5
149
100
AcDbEntity
  8
quote
  6
CONTINUOUS
 62
    0
370
   -2
100
AcDbMText
 10
18.5
 20
-3.125
 30
0
 40
2.5
 41
5.277777777777779
 71
    5
 72
    1
  1
17.0
  7
standard
210
0
220
0
230
1
 50
0
 73
    2
 44
1
  0
SOLID
  5
14A
100
AcDbEntity
  8
quote
  6
ByBlock
 62
    0
370
   -2
100
AcDbTrace
 10
27
 20
-5
 30
0
 11
24.5
 21
-5.416284657772841
 31
0
 12
24.5
 22
-4.583715342227159
 32
0
 13
24.5
 23
-4.583715342227159
 33
0
  0
SOLID
  5
14B
100
AcDbEntity
  8
quote
  6
ByBlock
 62
    0
370
   -2
100
AcDbTrace
 10
10
 20
-5
 30
0
 11
12.5
 21
-4.58371534222716
 31
0
 12
12.5
 22
-5.416284657772841
 32
0
 13
12.5
 23
-5.416284657772841
 33
0
  0
LINE
  5
14C
100
AcDbEntity
  8
quote
  6
ByBlock
 62
    0
370
   -2
100
AcDbLine
 10
27
 20
26.375
 11
27
 21
-6.25
  0
LINE
  5
14D
100
AcDbEntity
  8
quote
  6
ByBlock
 62
    0
370
   -2
100
AcDbLine
 10
10
 20
26.375
 11
10
 21
-6.25
  0
ENDBLK
  5
87
330
85
100
AcDbEntity
  8
0
100
AcDbBlockEnd
  0
BLOCK
  5
89
330
88
100
AcDbEntity
  8
0
100
AcDbBlockBegin
  2
*D2
 70
    1
 10
0
 20
0
  3
*D2
  1

  0
LINE
  5
14E
100
AcDbEntity
  8
quote
  6
ByBlock
 62
    0
370
   -2
100
AcDbLine
 10
27
 20
60
 11
54
 21
60
  0
MTEXT
  5
14F
100
AcDbEntity
  8
quote
  6
CONTINUOUS
 62
    0
370
   -2
100
AcDbMText
 10
40.5
 20
61.875
 30
0
 40
2.5
 41
5.833333333333334
 71
    5
 72
    1
  1
27.0
  7
standard
210
0
220
0
230
1
 50
0
 73
    2
 44
1
  0
SOLID
  5
150
100
AcDbEntity
  8
quote
  6
ByBlock
 62
    0
370
   -2
100
AcDbTrace
 10
27
 20
60
 30
0
 11
29.5
 21
60.41628465777284
 31
0
 12
29.5
 22
59.58371534222716
 32
0
 13
29.5
 23
59.58371534222716
 33
0
  0
SOLID
  5
151
100
AcDbEntity
  8
quote
  6
ByBlock
 62
    0
370
   -2
100
AcDbTrace
 10
54
 20
60
 30
0
 11
51.5
 21
59.58371534222716
 31
0
 12
51.5
 22
60.41628465777284
 32
0
 13
51.5
 23
60.41628465777284
 33
0
  0
LINE
  5
152
100
AcDbEntity
  8
quote
  6
ByBlock
 62
    0
370
   -2
100
AcDbLine
 10
27
 20
27.625
 11
27
 21
61.25
  0
LINE
  5
153
100
AcDbEntity
  8
quote
  6
ByBlock
 62
    0
370
   -2
100
AcDbLine
 10
54
 20
27.625
 11
54
 21
61.25
  0
ENDBLK
  5
8A
330
88
100
AcDbEntity
  8
0
100
AcDbBlockEnd
  0
BLOCK
  5
8C
330
8B
100
AcDbEntity
  8
0
100
AcDbBlockBegin
  2
*D4
 70
    1
 10
0
 20
0
  3
*D4
  1

  0
LINE
  5
154
100
AcDbEntity
  8
quote
  6
ByBlock
 62
    0
370
   -2
100
AcDbLine
 10
62
 20
17
 11
62
 21
27
  0
MTEXT
  5
155
100
AcDbEntity
  8
quote
  6
CONTINUOUS
 62
    0
370
   -2
100
AcDbMText
 10
60.125
 20
22
 30
0
 40
2.5
 41
5.277777777777779
 71
    5
 72
    1
  1
10.0
  7
standard
210
0
220
0
230
1
 50
90
 73
    2
 44
1
  0
SOLID
  5
156
100
AcDbEntity
  8
quote
  6
ByBlock
 62
    0
370
   -2
100
AcDbTrace
 10
62
 20
17
 30
0
 11
61.58371534222716
 21
19.5
 31
0
 12
62.41628465777284
 22
19.5
 32
0
 13
62.41628465777284
 23
19.5
 33
0
  0
SOLID
  5
157
100
AcDbEntity
  8
quote
  6
ByBlock
 62
    0
370
   -2
100
AcDbTrace
 10
62
 20
27
 30
0
 11
62.41628465777284
 21
24.5
 31
0
 12
61.58371534222716
 22
24.5
 32
0
 13
61.58371534222716
 23
24.5
 33
0
  0
LINE
  5
158
100
AcDbEntity
  8
quote
  6
ByBlock
 62
    0
370
   -2
100
AcDbLine
 10
27.625
 20
17
 11
63.25
 21
17
  0
LINE
  5
159
100
AcDbEntity
  8
quote
  6
ByBlock
 62
    0
370
   -2
100
AcDbLine
 10
27.625
 20
27
 11
63.25
 21
27
  0
ENDBLK
  5
8D
330
8B
100
AcDbEntity
  8
0
100
AcDbBlockEnd
  0
BLOCK
  5
8F
330
8E
100
AcDbEntity
  8
0
100
AcDbBlockBegin
  2
*D22
 70
    1
 10
0
 20
0
  3
*D22
  1

  0
LINE
  5
15A
100
AcDbEntity
  8
quote
  6
ByBlock
 62
    0
370
   -2
100
AcDbLine
 10
100
 20
142
 11
100
 21
100
  0
MTEXT
  5
15B
100
AcDbEntity
  8
quote
  6
CONTINUOUS
 62
    0
370
   -2
100
AcDbMText
 10
98.125
 20
121
 30
0
 40
2.5
 41
6.111111111111111
 71
    5
 72
    1
  1
42.0
  7
standard
210
0
220
0
230
1
 50
90
 73
    2
 44
1
  0
SOLID
  5
15C
100
AcDbEntity
  8
quote
  6
ByBlock
 62
    0
370
   -2
100
AcDbTrace
 10
100
 20
142
 30
0
 11
100.4162846577728
 21
139.5
 31
0
 12
99.58371534222717
 22
139.5
 32
0
 13
99.58371534222717
 23
139.5
 33
0
  0
SOLID
  5
15D
100
AcDbEntity
  8
quote
  6
ByBlock
 62
    0
370
   -2
100
AcDbTrace
 10
100
 20
100
 30
0
 11
99.58371534222717
 21
102.5
 31
0
 12
100.4162846577728
 22
102.5
 32
0
 13
100.4162846577728
 23
102.5
 33
0
  0
LINE
  5
15E
100
AcDbEntity
  8
quote
  6
ByBlock
 62
    0
370
   -2
100
AcDbLine
 10
123.375
 20
142
 11
98.75
 21
142
  0
LINE
  5
15F
100
AcDbEntity
  8
quote
  6
ByBlock
 62
    0
370
   -2
100
AcDbLine
 10
123.375
 20
100
 11
98.75
 21
100
  0
ENDBLK
  5
90
330
8E
100
AcDbEntity
  8
0
100
AcDbBlockEnd
  0
BLOCK
  5
92
330
91
100
AcDbEntity
  8
0
100
AcDbBlockBegin
  2
*D29
 70
    1
 10
0
 20
0
  3
*D29
  1

  0
LINE
  5
160
100
AcDbEntity
  8
quote
  6
ByBlock
 62
    0
370
   -2
100
AcDbLine
 10
147
 20
47
 11
147
 21
72
  0
MTEXT
  5
161
100
AcDbEntity
  8
quote
  6
CONTINUOUS
 62
    0
370
   -2
100
AcDbMText
 10
145.125
 20
59.5
 30
0
 40
2.5
 41
5.83333333333349
 71
    5
 72
    1
  1
25.0
  7
standard
210
0
220
0
230
1
 50
90
 73
    2
 44
1
  0
SOLID
  5
162
100
AcDbEntity
  8
quote
  6
ByBlock
 62
    0
370
   -2
100
AcDbTrace
 10
147
 20
47
 30
0
 11
146.5837153422272
 21
49.5
 31
0
 12
147.4162846577728
 22
49.5
 32
0
 13
147.4162846577728
 23
49.5
 33
0
  0
SOLID
  5
163
100
AcDbEntity
  8
quote
  6
ByBlock
 62
    0
370
   -2
100
AcDbTrace
 10
147
 20
72
 30
0
 11
147.4162846577728
 21
69.5
 31
0
 12
146.5837153422272
 22
69.5
 32
0
 13
146.5837153422272
 23
69.5
 33
0
  0
LINE
  5
164
100
AcDbEntity
  8
quote
  6
ByBlock
 62
    0
370
   -2
100
AcDbLine
 10
130.625
 20
47
 11
148.25
 21
47
  0
LINE
  5
165
100
AcDbEntity
  8
quote
  6
ByBlock
 62
    0
370
   -2
100
AcDbLine
 10
142.625
 20
72
 11
148.25
 21
72
  0
ENDBLK
  5
93
330
91
100
AcDbEntity
  8
0
100
AcDbBlockEnd
  0
BLOCK
  5
95
330
94
100
AcDbEntity
  8
0
100
AcDbBlockBegin
  2
*D31
 70
    1
 10
0
 20
0
  3
*D31
  1

  0
LINE
  5
166
100
AcDbEntity
  8
quote
  6
ByBlock
 62
    0
370
   -2
100
AcDbLine
 10
126
 20
52
 11
110
 21
52
  0
MTEXT
  5
167
100
AcDbEntity
  8
quote
  6
CONTINUOUS
 62
    0
370
   -2
100
AcDbMText
 10
118
 20
53.875
 30
0
 40
2.5
 41
5.277777777777933
 71
    5
 72
    1
  1
16.0
  7
standard
210
0
220
0
230
1
 50
0
 73
    2
 44
1
  0
SOLID
  5
168
100
AcDbEntity
  8
quote
  6
ByBlock
 62
    0
370
   -2
100
AcDbTrace
 10
126
 20
52
 30
0
 11
123.5
 21
51.58371534222716
 31
0
 12
123.5
 22
52.41628465777284
 32
0
 13
123.5
 23
52.41628465777284
 33
0
  0
SOLID
  5
169
100
AcDbEntity
  8
quote
  6
ByBlock
 62
    0
370
   -2
100
AcDbTrace
 10
110
 20
52
 30
0
 11
112.5
 21
52.41628465777284
 31
0
 12
112.5
 22
51.58371534222716
 32
0
 13
112.5
 23
51.58371534222716
 33
0
  0
LINE
  5
16A
100
AcDbEntity
  8
quote
  6
ByBlock
 62
    0
370
   -2
100
AcDbLine
 10
126
 20
47.625
 11
126
 21
53.25
  0
LINE
  5
16B
100
AcDbEntity
  8
quote
  6
ByBlock
 62
    0
370
   -2
100
AcDbLine
 10
110
 20
47.625
 11
110
 21
53.25
  0
ENDBLK
  5
96
330
94
100
AcDbEntity
  8
0
100
AcDbBlockEnd
  0
BLOCK
  5
98
330
97
100
AcDbEntity
  8
0
100
AcDbBlockBegin
  2
*D24
 70
    1
 10
0
 20
0
  3
*D24
  1

  0
LINE
  5
16C
100
AcDbEntity
  8
quote
  6
ByBlock
 62
    0
370
   -2
100
AcDbLine
 10
93.875
 20
72
 11
93.875
 21
0
  0
MTEXT
  5
16D
100
AcDbEntity
  8
quote
  6
CONTINUOUS
 62
    0
370
   -2
100
AcDbMText
 10
92
 20
36
 30
0
 40
2.5
 41
5.833333333333334
 71
    5
 72
    1
  1
72.0
  7
standard
210
0
220
0
230
1
 50
90
 73
    2
 44
1
  0
SOLID
  5
16E
100
AcDbEntity
  8
quote
  6
ByBlock
 62
    0
370
   -2
100
AcDbTrace
 10
93.875
 20
72
 30
0
 11
94.29128465777283
 21
69.5
 31
0
 12
93.45871534222717
 22
69.5
 32
0
 13
93.45871534222717
 23
69.5
 33
0
  0
SOLID
  5
16F
100
AcDbEntity
  8
quote
  6
ByBlock
 62
    0
370
   -2
100
AcDbTrace
 10
93.875
 20
0
 30
0
 11
93.45871534222717
 21
2.5
 31
0
 12
94.29128465777283
 22
2.5
 32
0
 13
94.29128465777283
 23
2.5
 33
0
  0
LINE
  5
170
100
AcDbEntity
  8
quote
  6
ByBlock
 62
    0
370
   -2
100
AcDbLine
 10
103.25
 20
72
 11
92.625
 21
72
  0
LINE
  5
171
100
AcDbEntity
  8
quote
  6
ByBlock
 62
    0
370
   -2
100
AcDbLine
 10
113.25
 20
7.653789711389858e-17
 11
92.625
 21
1.530757942277972e-16
  0
ENDBLK
  5
99
330
97
100
AcDbEntity
  8
0
100
AcDbBlockEnd
  0
BLOCK
  5
9B
330
9A
100
AcDbEntity
  8
0
100
AcDbBlockBegin
  2
*D21
 70
    1
 10
0
 20
0
  3
*D21
  1

  0
LINE
  5
172
100
AcDbEntity
  8
quote
  6
ByBlock
 62
    0
370
   -2
100
AcDbLine
 10
106
 20
133
 11
106
 21
147
  0
MTEXT
  5
173
100
AcDbEntity
  8
quote
  6
CONTINUOUS
 62
    0
370
   -2
100
AcDbMText
 10
104.125
 20
144.7083333333333
 30
0
 40
2.5
 41
4.166666666666667
 71
    5
 72
    1
  1
4.0
  7
standard
210
0
220
0
230
1
 50
90
 73
    2
 44
1
  0
SOLID
  5
174
100
AcDbEntity
  8
quote
  6
ByBlock
 62
    0
370
   -2
100
AcDbTrace
 10
106
 20
138
 30
0
 11
106.4162846577728
 21
135.5
 31
0
 12
105.5837153422272
 22
135.5
 32
0
 13
105.5837153422272
 23
135.5
 33
0
  0
SOLID
  5
175
100
AcDbEntity
  8
quote
  6
ByBlock
 62
    0
370
   -2
100
AcDbTrace
 10
106
 20
142
 30
0
 11
105.5837153422272
 21
144.5
 31
0
 12
106.4162846577728
 22
144.5
 32
0
 13
106.4162846577728
 23
144.5
 33
0
  0
LINE
  5
176
100
AcDbEntity
  8
quote
  6
ByBlock
 62
    0
370
   -2
100
AcDbLine
 10
123.375
 20
138
 11
104.75
 21
138
  0
LINE
  5
177
100
AcDbEntity
  8
quote
  6
ByBlock
 62
    0
370
   -2
100
AcDbLine
 10
115.375
 20
142
 11
104.75
 21
142
  0
ENDBLK
  5
9C
330
9A
100
AcDbEntity
  8
0
100
AcDbBlockEnd
  0
BLOCK
  5
9E
330
9D
100
AcDbEntity
  8
0
100
AcDbBlockBegin
  2
*D7
 70
    1
 10
0
 20
0
  3
*D7
  1

  0
LINE
  5
178
100
AcDbEntity
  8
quote
  6
ByBlock
 62
    0
370
   -2
100
AcDbLine
 10
106
 20
-5
 11
106
 21
9
  0
MTEXT
  5
179
100
AcDbEntity
  8
quote
  6
CONTINUOUS
 62
    0
370
   -2
100
AcDbMText
 10
104.125
 20
6.708333333333334
 30
0
 40
2.5
 41
4.166666666666667
 71
    5
 72
    1
  1
4.0
  7
standard
210
0
220
0
230
1
 50
90
 73
    2
 44
1
  0
SOLID
  5
17A
100
AcDbEntity
  8
quote
  6
ByBlock
 62
    0
370
   -2
100
AcDbTrace
 10
106
 20
0
 30
0
 11
106.4162846577728
 21
-2.5
 31
0
 12
105.5837153422272
 22
-2.5
 32
0
 13
105.5837153422272
 23
-2.5
 33
0
  0
SOLID
  5
17B
100
AcDbEntity
  8
quote
  6
ByBlock
 62
    0
370
   -2
100
AcDbTrace
 10
106
 20
4
 30
0
 11
105.5837153422272
 21
6.5
 31
0
 12
106.4162846577728
 22
6.5
 32
0
 13
106.4162846577728
 23
6.5
 33
0
  0
LINE
  5
17C
100
AcDbEntity
  8
quote
  6
ByBlock
 62
    0
370
   -2
100
AcDbLine
 10
131.375
 20
7.653789711389858e-17
 11
104.75
 21
1.530757942277972e-16
  0
LINE
  5
17D
100
AcDbEntity
  8
quote
  6
ByBlock
 62
    0
370
   -2
100
AcDbLine
 10
131.375
 20
4
 11
104.75
 21
4
  0
ENDBLK
  5
9F
330
9D
100
AcDbEntity
  8
0
100
AcDbBlockEnd
  0
BLOCK
  5
A1
330
A0
100
AcDbEntity
  8
0
100
AcDbBlockBegin
  2
*D45
 70
    1
 10
0
 20
0
  3
*D45
  1

  0
LINE
  5
17E
100
AcDbEntity
  8
quote
  6
ByBlock
 62
    0
370
   -2
100
AcDbLine
 10
39
 20
-4.999999999999999
 11
53
 21
-5.000000000000001
  0
MTEXT
  5
17F
100
AcDbEntity
  8
quote
  6
CONTINUOUS
 62
    0
370
   -2
100
AcDbMText
 10
50.70833333333334
 20
-3.125
 30
0
 40
2.5
 41
4.166666666666667
 71
    5
 72
    1
  1
4.0
  7
standard
210
0
220
0
230
1
 50
0
 73
    2
 44
1
  0
SOLID
  5
180
100
AcDbEntity
  8
quote
  6
ByBlock
 62
    0
370
   -2
100
AcDbTrace
 10
44
 20
-5
 30
0
 11
41.5
 21
-5.416284657772841
 31
0
 12
41.5
 22
-4.583715342227159
 32
0
 13
41.5
 23
-4.583715342227159
 33
0
  0
SOLID
  5
181
100
AcDbEntity
  8
quote
  6
ByBlock
 62
    0
370
   -2
100
AcDbTrace
 10
48
 20
-5
 30
0
 11
50.5
 21
-4.58371534222716
 31
0
 12
50.5
 22
-5.416284657772841
 32
0
 13
50.5
 23
-5.416284657772841
 33
0
  0
LINE
  5
182
100
AcDbEntity
  8
quote
  6
ByBlock
 62
    0
370
   -2
100
AcDbLine
 10
44
 20
26.375
 11
44
 21
-6.25
  0
LINE
  5
183
100
AcDbEntity
  8
quote
  6
ByBlock
 62
    0
370
   -2
100
AcDbLine
 10
48
 20
26.375
 11
48
 21
-6.25
  0
ENDBLK
  5
A2
330
A0
100
AcDbEntity
  8
0
100
AcDbBlockEnd
  0
BLOCK
  5
A4
330
A3
100
AcDbEntity
  8
0
100
AcDbBlockBegin
  2
*D8
 70
    1
 10
0
 20
0
  3
*D8
  1

  0
LINE
  5
184
100
AcDbEntity
  8
quote
  6
ByBlock
 62
    0
370
   -2
100
AcDbLine
 10
105
 20
80
 11
121
 21
80
  0
MTEXT
  5
185
100
AcDbEntity
  8
quote
  6
CONTINUOUS
 62
    0
370
   -2
100
AcDbMText
 10
113
 20
81.875
 30
0
 40
2.5
 41
3.888888888889044
 71
    5
 72
    1
  1
6.0
  7
standard
210
0
220
0
230
1
 50
0
 73
    2
 44
1
  0
SOLID
  5
186
100
AcDbEntity
  8
quote
  6
ByBlock
 62
    0
370
   -2
100
AcDbTrace
 10
110
 20
80
 30
0
 11
107.5
 21
79.58371534222717
 31
0
 12
107.5
 22
80.41628465777283
 32
0
 13
107.5
 23
80.41628465777283
 33
0
  0
SOLID
  5
187
100
AcDbEntity
  8
quote
  6
ByBlock
 62
    0
370
   -2
100
AcDbTrace
 10
116
 20
80
 30
0
 11
118.5
 21
80.41628465777283
 31
0
 12
118.5
 22
79.58371534222717
 32
0
 13
118.5
 23
79.58371534222717
 33
0
  0
LINE
  5
188
100
AcDbEntity
  8
quote
  6
ByBlock
 62
    0
370
   -2
100
AcDbLine
 10
110
 20
76.625
 11
110
 21
81.25
  0
LINE
  5
189
100
AcDbEntity
  8
quote
  6
ByBlock
 62
    0
370
   -2
100
AcDbLine
 10
116
 20
72.625
 11
116
 21
81.25
  0
ENDBLK
  5
A5
330
A3
100
AcDbEntity
  8
0
100
AcDbBlockEnd
  0
BLOCK
  5
A7
330
A6
100
AcDbEntity
  8
0
100
AcDbBlockBegin
  2
*D25
 70
    1
 10
0
 20
0
  3
*D25
  1

  0
LINE
  5
18A
100
AcDbEntity
  8
quote
  6
ByBlock
 62
    0
370
   -2
100
AcDbLine
 10
100
 20
72
 11
100
 21
4
  0
MTEXT
  5
18B
100
AcDbEntity
  8
quote
  6
CONTINUOUS
 62
    0
370
   -2
100
AcDbMText
 10
98.125
 20
38
 30
0
 40
2.5
 41
5.833333333333488
 71
    5
 72
    1
  1
68.0
  7
standard
210
0
220
0
230
1
 50
90
 73
    2
 44
1
  0
SOLID
  5
18C
100
AcDbEntity
  8
quote
  6
ByBlock
 62
    0
370
   -2
100
AcDbTrace
 10
100
 20
72
 30
0
 11
100.4162846577728
 21
69.5
 31
0
 12
99.58371534222717
 22
69.5
 32
0
 13
99.58371534222717
 23
69.5
 33
0
  0
SOLID
  5
18D
100
AcDbEntity
  8
quote
  6
ByBlock
 62
    0
370
   -2
100
AcDbTrace
 10
100
 20
4
 30
0
 11
99.58371534222717
 21
6.5
 31
0
 12
100.4162846577728
 22
6.5
 32
0
 13
100.4162846577728
 23
6.5
 33
0
  0
LINE
  5
18E
100
AcDbEntity
  8
quote
  6
ByBlock
 62
    0
370
   -2
100
AcDbLine
 10
123.375
 20
72
 11
98.75
 21
72
  0
LINE
  5
18F
100
AcDbEntity
  8
quote
  6
ByBlock
 62
    0
370
   -2
100
AcDbLine
 10
109.375
 20
4
 11
98.75
 21
4
  0
ENDBLK
  5
A8
330
A6
100
AcDbEntity
  8
0
100
AcDbBlockEnd
  0
BLOCK
  5
AA
330
A9
100
AcDbEntity
  8
0
100
AcDbBlockBegin
  2
*D44
 70
    1
 10
0
 20
0
  3
*D44
  1

  0
LINE
  5
190
100
AcDbEntity
  8
quote
  6
ByBlock
 62
    0
370
   -2
100
AcDbLine
 10
27
 20
-5
 11
44
 21
-5
  0
MTEXT
  5
191
100
AcDbEntity
  8
quote
  6
CONTINUOUS
 62
    0
370
   -2
100
AcDbMText
 10
35.5
 20
-3.125
 30
0
 40
2.5
 41
5.277777777777779
 71
    5
 72
    1
  1
17.0
  7
standard
210
0
220
0
230
1
 50
0
 73
    2
 44
1
  0
SOLID
  5
192
100
AcDbEntity
  8
quote
  6
ByBlock
 62
    0
370
   -2
100
AcDbTrace
 10
27
 20
-5
 30
0
 11
29.5
 21
-4.58371534222716
 31
0
 12
29.5
 22
-5.416284657772841
 32
0
 13
29.5
 23
-5.416284657772841
 33
0
  0
SOLID
  5
193
100
AcDbEntity
  8
quote
  6
ByBlock
 62
    0
370
   -2
100
AcDbTrace
 10
44
 20
-5
 30
0
 11
41.5
 21
-5.416284657772841
 31
0
 12
41.5
 22
-4.583715342227159
 32
0
 13
41.5
 23
-4.583715342227159
 33
0
  0
LINE
  5
194
100
AcDbEntity
  8
quote
  6
ByBlock
 62
    0
370
   -2
100
AcDbLine
 10
27
 20
26.375
 11
27
 21
-6.25
  0
LINE
  5
195
100
AcDbEntity
  8
quote
  6
ByBlock
 62
    0
370
   -2
100
AcDbLine
 10
44
 20
26.375
 11
44
 21
-6.25
  0
ENDBLK
  5
AB
330
A9
100
AcDbEntity
  8
0
100
AcDbBlockEnd
  0
BLOCK
  5
AD
330
AC
100
AcDbEntity
  8
0
100
AcDbBlockBegin
  2
*D23
 70
    1
 10
0
 20
0
  3
*D23
  1

  0
LINE
  5
196
100
AcDbEntity
  8
quote
  6
ByBlock
 62
    0
370
   -2
100
AcDbLine
 10
106
 20
63
 11
106
 21
77
  0
MTEXT
  5
197
100
AcDbEntity
  8
quote
  6
CONTINUOUS
 62
    0
370
   -2
100
AcDbMText
 10
104.125
 20
74.70833333333333
 30
0
 40
2.5
 41
4.166666666666667
 71
    5
 72
    1
  1
4.0
  7
standard
210
0
220
0
230
1
 50
90
 73
    2
 44
1
  0
SOLID
  5
198
100
AcDbEntity
  8
quote
  6
ByBlock
 62
    0
370
   -2
100
AcDbTrace
 10
106
 20
68
 30
0
 11
106.4162846577728
 21
65.5
 31
0
 12
105.5837153422272
 22
65.5
 32
0
 13
105.5837153422272
 23
65.5
 33
0
  0
SOLID
  5
199
100
AcDbEntity
  8
quote
  6
ByBlock
 62
    0
370
   -2
100
AcDbTrace
 10
106
 20
72
 30
0
 11
105.5837153422272
 21
74.5
 31
0
 12
106.4162846577728
 22
74.5
 32
0
 13
106.4162846577728
 23
74.5
 33
0
  0
LINE
  5
19A
100
AcDbEntity
  8
quote
  6
ByBlock
 62
    0
370
   -2
100
AcDbLine
 10
123.375
 20
68
 11
104.75
 21
68
  0
LINE
  5
19B
100
AcDbEntity
  8
quote
  6
ByBlock
 62
    0
370
   -2
100
AcDbLine
 10
123.375
 20
72
 11
104.75
 21
72
  0
ENDBLK
  5
AE
330
AC
100
AcDbEntity
  8
0
100
AcDbBlockEnd
  0
BLOCK
  5
B0
330
AF
100
AcDbEntity
  8
0
100
AcDbBlockBegin
  2
*D35
 70
    1
 10
0
 20
0
  3
*D35
  1

  0
LINE
  5
19C
100
AcDbEntity
  8
quote
  6
ByBlock
 62
    0
370
   -2
100
AcDbLine
 10
157
 20
47
 11
157
 21
68
  0
MTEXT
  5
19D
100
AcDbEntity
  8
quote
  6
CONTINUOUS
 62
    0
370
   -2
100
AcDbMText
 10
155.125
 20
57.5
 30
0
 40
2.5
 41
5.277777777777779
 71
    5
 72
    1
  1
21.0
  7
standard
210
0
220
0
230
1
 50
90
 73
    2
 44
1
  0
SOLID
  5
19E
100
AcDbEntity
  8
quote
  6
ByBlock
 62
    0
370
   -2
100
AcDbTrace
 10
157
 20
47
 30
0
 11
156.5837153422272
 21
49.5
 31
0
 12
157.4162846577728
 22
49.5
 32
0
 13
157.4162846577728
 23
49.5
 33
0
  0
SOLID
  5
19F
100
AcDbEntity
  8
quote
  6
ByBlock
 62
    0
370
   -2
100
AcDbTrace
 10
157
 20
68
 30
0
 11
157.4162846577728
 21
65.5
 31
0
 12
156.5837153422272
 22
65.5
 32
0
 13
156.5837153422272
 23
65.5
 33
0
  0
LINE
  5
1A0
100
AcDbEntity
  8
quote
  6
ByBlock
 62
    0
370
   -2
100
AcDbLine
 10
163.375
 20
47
 11
155.75
 21
47
  0
LINE
  5
1A1
100
AcDbEntity
  8
quote
  6
ByBlock
 62
    0
370
   -2
100
AcDbLine
 10
163.375
 20
68
 11
155.75
 21
68
  0
ENDBLK
  5
B1
330
AF
100
AcDbEntity
  8
0
100
AcDbBlockEnd
  0
BLOCK
  5
B3
330
B2
100
AcDbEntity
  8
0
100
AcDbBlockBegin
  2
*D37
 70
    1
 10
0
 20
0
  3
*D37
  1

  0
LINE
  5
1A2
100
AcDbEntity
  8
quote
  6
ByBlock
 62
    0
370
   -2
100
AcDbLine
 10
155
 20
73
 11
169
 21
73
  0
MTEXT
  5
1A3
100
AcDbEntity
  8
quote
  6
CONTINUOUS
 62
    0
370
   -2
100
AcDbMText
 10
166.7083333333333
 20
74.875
 30
0
 40
2.5
 41
4.166666666666667
 71
    5
 72
    1
  1
4.0
  7
standard
210
0
220
0
230
1
 50
0
 73
    2
 44
1
  0
SOLID
  5
1A4
100
AcDbEntity
  8
quote
  6
ByBlock
 62
    0
370
   -2
100
AcDbTrace
 10
160
 20
73
 30
0
 11
157.5
 21
72.58371534222717
 31
0
 12
157.5
 22
73.41628465777283
 32
0
 13
157.5
 23
73.41628465777283
 33
0
  0
SOLID
  5
1A5
100
AcDbEntity
  8
quote
  6
ByBlock
 62
    0
370
   -2
100
AcDbTrace
 10
164
 20
73
 30
0
 11
166.5
 21
73.41628465777283
 31
0
 12
166.5
 22
72.58371534222717
 32
0
 13
166.5
 23
72.58371534222717
 33
0
  0
LINE
  5
1A6
100
AcDbEntity
  8
quote
  6
ByBlock
 62
    0
370
   -2
100
AcDbLine
 10
160
 20
25.625
 11
160
 21
74.25
  0
LINE
  5
1A7
100
AcDbEntity
  8
quote
  6
ByBlock
 62
    0
370
   -2
100
AcDbLine
 10
164
 20
25.625
 11
164
 21
74.25
  0
ENDBLK
  5
B4
330
B2
100
AcDbEntity
  8
0
100
AcDbBlockEnd
  0
BLOCK
  5
B6
330
B5
100
AcDbEntity
  8
0
100
AcDbBlockBegin
  2
*D15
 70
    1
 10
0
 20
0
  3
*D15
  1

  0
LINE
  5
1A8
100
AcDbEntity
  8
quote
  6
ByBlock
 62
    0
370
   -2
100
AcDbLine
 10
105
 20
95
 11
121
 21
95
  0
MTEXT
  5
1A9
100
AcDbEntity
  8
quote
  6
CONTINUOUS
 62
    0
370
   -2
100
AcDbMText
 10
113
 20
96.875
 30
0
 40
2.5
 41
3.888888888889044
 71
    5
 72
    1
  1
6.0
  7
standard
210
0
220
0
230
1
 50
0
 73
    2
 44
1
  0
SOLID
  5
1AA
100
AcDbEntity
  8
quote
  6
ByBlock
 62
    0
370
   -2
100
AcDbTrace
 10
110
 20
95
 30
0
 11
107.5
 21
94.58371534222717
 31
0
 12
107.5
 22
95.41628465777283
 32
0
 13
107.5
 23
95.41628465777283
 33
0
  0
SOLID
  5
1AB
100
AcDbEntity
  8
quote
  6
ByBlock
 62
    0
370
   -2
100
AcDbTrace
 10
116
 20
95
 30
0
 11
118.5
 21
95.41628465777283
 31
0
 12
118.5
 22
94.58371534222717
 32
0
 13
118.5
 23
94.58371534222717
 33
0
  0
LINE
  5
1AC
100
AcDbEntity
  8
quote
  6
ByBlock
 62
    0
370
   -2
100
AcDbLine
 10
110
 20
103.375
 11
110
 21
93.75
  0
LINE
  5
1AD
100
AcDbEntity
  8
quote
  6
ByBlock
 62
    0
370
   -2
100
AcDbLine
 10
116
 20
103.375
 11
116
 21
93.75
  0
ENDBLK
  5
B7
330
B5
100
AcDbEntity
  8
0
100
AcDbBlockEnd
  0
BLOCK
  5
B9
330
B8
100
AcDbEntity
  8
0
100
AcDbBlockBegin
  2
*D41
 70
    1
 10
0
 20
0
  3
*D41
  1

  0
LINE
  5
1AE
100
AcDbEntity
  8
quote
  6
ByBlock
 62
    0
370
   -2
100
AcDbLine
 10
-5
 20
38
 11
-5
 21
22
  0
MTEXT
  5
1AF
100
AcDbEntity
  8
quote
  6
CONTINUOUS
 62
    0
370
   -2
100
AcDbMText
 10
-6.875
 20
30
 30
0
 40
2.5
 41
3.888888888889044
 71
    5
 72
    1
  1
6.0
  7
standard
210
0
220
0
230
1
 50
90
 73
    2
 44
1
  0
SOLID
  5
1B0
100
AcDbEntity
  8
quote
  6
ByBlock
 62
    0
370
   -2
100
AcDbTrace
 10
-5
 20
33
 30
0
 11
-5.41628465777284
 21
35.5
 31
0
 12
-4.583715342227159
 22
35.5
 32
0
 13
-4.583715342227159
 23
35.5
 33
0
  0
SOLID
  5
1B1
100
AcDbEntity
  8
quote
  6
ByBlock
 62
    0
370
   -2
100
AcDbTrace
 10
-5
 20
27
 30
0
 11
-4.583715342227159
 21
24.5
 31
0
 12
-5.416284657772841
 22
24.5
 32
0
 13
-5.416284657772841
 23
24.5
 33
0
  0
LINE
  5
1B2
100
AcDbEntity
  8
quote
  6
ByBlock
 62
    0
370
   -2
100
AcDbLine
 10
47.375
 20
33
 11
-6.25
 21
33
  0
LINE
  5
1B3
100
AcDbEntity
  8
quote
  6
ByBlock
 62
    0
370
   -2
100
AcDbLine
 10
26.375
 20
27
 11
-6.25
 21
27
  0
ENDBLK
  5
BA
330
B8
100
AcDbEntity
  8
0
100
AcDbBlockEnd
  0
BLOCK
  5
BC
330
BB
100
AcDbEntity
  8
0
100
AcDbBlockBegin
  2
*D11
 70
    1
 10
0
 20
0
  3
*D11
  1

  0
LINE
  5
1B4
100
AcDbEntity
  8
quote
  6
ByBlock
 62
    0
370
   -2
100
AcDbLine
 10
110
 20
-5
 11
120
 21
-5
  0
MTEXT
  5
1B5
100
AcDbEntity
  8
quote
  6
CONTINUOUS
 62
    0
370
   -2
100
AcDbMText
 10
115
 20
-3.125
 30
0
 40
2.5
 41
5.277777777777779
 71
    5
 72
    1
  1
10.0
  7
standard
210
0
220
0
230
1
 50
0
 73
    2
 44
1
  0
SOLID
  5
1B6
100
AcDbEntity
  8
quote
  6
ByBlock
 62
    0
370
   -2
100
AcDbTrace
 10
110
 20
-5
 30
0
 11
112.5
 21
-4.58371534222716
 31
0
 12
112.5
 22
-5.416284657772841
 32
0
 13
112.5
 23
-5.416284657772841
 33
0
  0
SOLID
  5
1B7
100
AcDbEntity
  8
quote
  6
ByBlock
 62
    0
370
   -2
100
AcDbTrace
 10
120
 20
-5
 30
0
 11
117.5
 21
-5.416284657772841
 31
0
 12
117.5
 22
-4.583715342227159
 32
0
 13
117.5
 23
-4.583715342227159
 33
0
  0
LINE
  5
1B8
100
AcDbEntity
  8
quote
  6
ByBlock
 62
    0
370
   -2
100
AcDbLine
 10
110
 20
3.375
 11
110
 21
-6.25
  0
LINE
  5
1B9
100
AcDbEntity
  8
quote
  6
ByBlock
 62
    0
370
   -2
100
AcDbLine
 10
120
 20
3.375
 11
120
 21
-6.25
  0
ENDBLK
  5
BD
330
BB
100
AcDbEntity
  8
0
100
AcDbBlockEnd
  0
BLOCK
  5
BF
330
BE
100
AcDbEntity
  8
0
100
AcDbBlockBegin
  2
*D36
 70
    1
 10
0
 20
0
  3
*D36
  1

  0
LINE
  5
1BA
100
AcDbEntity
  8
quote
  6
ByBlock
 62
    0
370
   -2
100
AcDbLine
 10
152
 20
4
 11
152
 21
68
  0
MTEXT
  5
1BB
100
AcDbEntity
  8
quote
  6
CONTINUOUS
 62
    0
370
   -2
100
AcDbMText
 10
150.125
 20
36
 30
0
 40
2.5
 41
6.111111111111267
 71
    5
 72
    1
  1
64.0
  7
standard
210
0
220
0
230
1
 50
90
 73
    2
 44
1
  0
SOLID
  5
1BC
100
AcDbEntity
  8
quote
  6
ByBlock
 62
    0
370
   -2
100
AcDbTrace
 10
152
 20
4
 30
0
 11
151.5837153422272
 21
6.5
 31
0
 12
152.4162846577728
 22
6.5
 32
0
 13
152.4162846577728
 23
6.5
 33
0
  0
SOLID
  5
1BD
100
AcDbEntity
  8
quote
  6
ByBlock
 62
    0
370
   -2
100
AcDbTrace
 10
152
 20
68
 30
0
 11
152.4162846577728
 21
65.5
 31
0
 12
151.5837153422272
 22
65.5
 32
0
 13
151.5837153422272
 23
65.5
 33
0
  0
LINE
  5
1BE
100
AcDbEntity
  8
quote
  6
ByBlock
 62
    0
370
   -2
100
AcDbLine
 10
163.375
 20
4
 11
150.75
 21
4
  0
LINE
  5
1BF
100
AcDbEntity
  8
quote
  6
ByBlock
 62
    0
370
   -2
100
AcDbLine
 10
163.375
 20
68
 11
150.75
 21
68
  0
ENDBLK
  5
C0
330
BE
100
AcDbEntity
  8
0
100
AcDbBlockEnd
  0
BLOCK
  5
C2
330
C1
100
AcDbEntity
  8
0
100
AcDbBlockBegin
  2
*D17
 70
    1
 10
0
 20
0
  3
*D17
  1

  0
LINE
  5
1C0
100
AcDbEntity
  8
quote
  6
ByBlock
 62
    0
370
   -2
100
AcDbLine
 10
119
 20
95
 11
135
 21
95
  0
MTEXT
  5
1C1
100
AcDbEntity
  8
quote
  6
CONTINUOUS
 62
    0
370
   -2
100
AcDbMText
 10
127
 20
96.875
 30
0
 40
2.5
 41
3.888888888889044
 71
    5
 72
    1
  1
6.0
  7
standard
210
0
220
0
230
1
 50
0
 73
    2
 44
1
  0
SOLID
  5
1C2
100
AcDbEntity
  8
quote
  6
ByBlock
 62
    0
370
   -2
100
AcDbTrace
 10
124
 20
95
 30
0
 11
121.5
 21
94.58371534222717
 31
0
 12
121.5
 22
95.41628465777283
 32
0
 13
121.5
 23
95.41628465777283
 33
0
  0
SOLID
  5
1C3
100
AcDbEntity
  8
quote
  6
ByBlock
 62
    0
370
   -2
100
AcDbTrace
 10
130
 20
95
 30
0
 11
132.5
 21
95.41628465777283
 31
0
 12
132.5
 22
94.58371534222717
 32
0
 13
132.5
 23
94.58371534222717
 33
0
  0
LINE
  5
1C4
100
AcDbEntity
  8
quote
  6
ByBlock
 62
    0
370
   -2
100
AcDbLine
 10
124
 20
103.375
 11
124
 21
93.75
  0
LINE
  5
1C5
100
AcDbEntity
  8
quote
  6
ByBlock
 62
    0
370
   -2
100
AcDbLine
 10
130
 20
103.375
 11
130
 21
93.75
  0
ENDBLK
  5
C3
330
C1
100
AcDbEntity
  8
0
100
AcDbBlockEnd
  0
BLOCK
  5
C5
330
C4
100
AcDbEntity
  8
0
100
AcDbBlockBegin
  2
*D5
 70
    1
 10
0
 20
0
  3
*D5
  1

  0
LINE
  5
1C6
100
AcDbEntity
  8
quote
  6
ByBlock
 62
    0
370
   -2
100
AcDbLine
 10
62
 20
27
 11
62
 21
37
  0
MTEXT
  5
1C7
100
AcDbEntity
  8
quote
  6
CONTINUOUS
 62
    0
370
   -2
100
AcDbMText
 10
60.125
 20
32
 30
0
 40
2.5
 41
5.277777777777779
 71
    5
 72
    1
  1
10.0
  7
standard
210
0
220
0
230
1
 50
90
 73
    2
 44
1
  0
SOLID
  5
1C8
100
AcDbEntity
  8
quote
  6
ByBlock
 62
    0
370
   -2
100
AcDbTrace
 10
62
 20
27
 30
0
 11
61.58371534222716
 21
29.5
 31
0
 12
62.41628465777284
 22
29.5
 32
0
 13
62.41628465777284
 23
29.5
 33
0
  0
SOLID
  5
1C9
100
AcDbEntity
  8
quote
  6
ByBlock
 62
    0
370
   -2
100
AcDbTrace
 10
62
 20
37
 30
0
 11
62.41628465777284
 21
34.5
 31
0
 12
61.58371534222716
 22
34.5
 32
0
 13
61.58371534222716
 23
34.5
 33
0
  0
LINE
  5
1CA
100
AcDbEntity
  8
quote
  6
ByBlock
 62
    0
370
   -2
100
AcDbLine
 10
27.625
 20
27
 11
63.25
 21
27
  0
LINE
  5
1CB
100
AcDbEntity
  8
quote
  6
ByBlock
 62
    0
370
   -2
100
AcDbLine
 10
27.625
 20
37
 11
63.25
 21
37
  0
ENDBLK
  5
C6
330
C4
100
AcDbEntity
  8
0
100
AcDbBlockEnd
  0
BLOCK
  5
C8
330
C7
100
AcDbEntity
  8
0
100
AcDbBlockBegin
  2
*D42
 70
    1
 10
0
 20
0
  3
*D42
  1

  0
LINE
  5
1CC
100
AcDbEntity
  8
quote
  6
ByBlock
 62
    0
370
   -2
100
AcDbLine
 10
-13
 20
21
 11
-13
 21
33
  0
MTEXT
  5
1CD
100
AcDbEntity
  8
quote
  6
CONTINUOUS
 62
    0
370
   -2
100
AcDbMText
 10
-14.875
 20
27
 30
0
 40
2.5
 41
5.277777777777779
 71
    5
 72
    1
  1
12.0
  7
standard
210
0
220
0
230
1
 50
90
 73
    2
 44
1
  0
SOLID
  5
1CE
100
AcDbEntity
  8
quote
  6
ByBlock
 62
    0
370
   -2
100
AcDbTrace
 10
-13
 20
21
 30
0
 11
-13.41628465777284
 21
23.5
 31
0
 12
-12.58371534222716
 22
23.5
 32
0
 13
-12.58371534222716
 23
23.5
 33
0
  0
SOLID
  5
1CF
100
AcDbEntity
  8
quote
  6
ByBlock
 62
    0
370
   -2
100
AcDbTrace
 10
-13
 20
33
 30
0
 11
-12.58371534222716
 21
30.5
 31
0
 12
-13.41628465777284
 22
30.5
 32
0
 13
-13.41628465777284
 23
30.5
 33
0
  0
LINE
  5
1D0
100
AcDbEntity
  8
quote
  6
ByBlock
 62
    0
370
   -2
100
AcDbLine
 10
47.375
 20
21
 11
-14.25
 21
21
  0
LINE
  5
1D1
100
AcDbEntity
  8
quote
  6
ByBlock
 62
    0
370
   -2
100
AcDbLine
 10
47.375
 20
33
 11
-14.25
 21
33
  0
ENDBLK
  5
C9
330
C7
100
AcDbEntity
  8
0
100
AcDbBlockEnd
  0
BLOCK
  5
CB
330
CA
100
AcDbEntity
  8
0
100
AcDbBlockBegin
  2
*D10
 70
    1
 10
0
 20
0
  3
*D10
  1

  0
LINE
  5
1D2
100
AcDbEntity
  8
quote
  6
ByBlock
 62
    0
370
   -2
100
AcDbLine
 10
110
 20
85
 11
142
 21
85
  0
MTEXT
  5
1D3
100
AcDbEntity
  8
quote
  6
CONTINUOUS
 62
    0
370
   -2
100
AcDbMText
 10
126
 20
86.875
 30
0
 40
2.5
 41
5.833333333333488
 71
    5
 72
    1
  1
32.0
  7
standard
210
0
220
0
230
1
 50
0
 73
    2
 44
1
  0
SOLID
  5
1D4
100
AcDbEntity
  8
quote
  6
ByBlock
 62
    0
370
   -2
100
AcDbTrace
 10
110
 20
85
 30
0
 11
112.5
 21
85.41628465777283
 31
0
 12
112.5
 22
84.58371534222717
 32
0
 13
112.5
 23
84.58371534222717
 33
0
  0
SOLID
  5
1D5
100
AcDbEntity
  8
quote
  6
ByBlock
 62
    0
370
   -2
100
AcDbTrace
 10
142
 20
85
 30
0
 11
139.5
 21
84.58371534222717
 31
0
 12
139.5
 22
85.41628465777283
 32
0
 13
139.5
 23
85.41628465777283
 33
0
  0
LINE
  5
1D6
100
AcDbEntity
  8
quote
  6
ByBlock
 62
    0
370
   -2
100
AcDbLine
 10
110
 20
76.625
 11
110
 21
86.25
  0
LINE
  5
1D7
100
AcDbEntity
  8
quote
  6
ByBlock
 62
    0
370
   -2
100
AcDbLine
 10
142
 20
76.625
 11
142
 21
86.25
  0
ENDBLK
  5
CC
330
CA
100
AcDbEntity
  8
0
100
AcDbBlockEnd
  0
BLOCK
  5
CE
330
CD
100
AcDbEntity
  8
0
100
AcDbBlockBegin
  2
*D16
 70
    1
 10
0
 20
0
  3
*D16
  1

  0
LINE
  5
1D8
100
AcDbEntity
  8
quote
  6
ByBlock
 62
    0
370
   -2
100
AcDbLine
 10
116
 20
95
 11
124
 21
95
  0
MTEXT
  5
1D9
100
AcDbEntity
  8
quote
  6
CONTINUOUS
 62
    0
370
   -2
100
AcDbMText
 10
120
 20
96.875
 30
0
 40
2.5
 41
3.888888888888889
 71
    5
 72
    1
  1
8.0
  7
standard
210
0
220
0
230
1
 50
0
 73
    2
 44
1
  0
SOLID
  5
1DA
100
AcDbEntity
  8
quote
  6
ByBlock
 62
    0
370
   -2
100
AcDbTrace
 10
116
 20
95
 30
0
 11
118.5
 21
95.41628465777283
 31
0
 12
118.5
 22
94.58371534222717
 32
0
 13
118.5
 23
94.58371534222717
 33
0
  0
SOLID
  5
1DB
100
AcDbEntity
  8
quote
  6
ByBlock
 62
    0
370
   -2
100
AcDbTrace
 10
124
 20
95
 30
0
 11
121.5
 21
94.58371534222717
 31
0
 12
121.5
 22
95.41628465777283
 32
0
 13
121.5
 23
95.41628465777283
 33
0
  0
LINE
  5
1DC
100
AcDbEntity
  8
quote
  6
ByBlock
 62
    0
370
   -2
100
AcDbLine
 10
116
 20
103.375
 11
116
 21
93.75
  0
LINE
  5
1DD
100
AcDbEntity
  8
quote
  6
ByBlock
 62
    0
370
   -2
100
AcDbLine
 10
124
 20
103.375
 11
124
 21
93.75
  0
ENDBLK
  5
CF
330
CD
100
AcDbEntity
  8
0
100
AcDbBlockEnd
  0
BLOCK
  5
D1
330
D0
100
AcDbEntity
  8
0
100
AcDbBlockBegin
  2
*D40
 70
    1
 10
0
 20
0
  3
*D40
  1

  0
LINE
  5
1DE
100
AcDbEntity
  8
quote
  6
ByBlock
 62
    0
370
   -2
100
AcDbLine
 10
-5.000000000000001
 20
16
 11
-4.999999999999999
 21
32
  0
MTEXT
  5
1DF
100
AcDbEntity
  8
quote
  6
CONTINUOUS
 62
    0
370
   -2
100
AcDbMText
 10
-6.875
 20
24
 30
0
 40
2.5
 41
3.888888888889044
 71
    5
 72
    1
  1
6.0
  7
standard
210
0
220
0
230
1
 50
90
 73
    2
 44
1
  0
SOLID
  5
1E0
100
AcDbEntity
  8
quote
  6
ByBlock
 62
    0
370
   -2
100
AcDbTrace
 10
-5
 20
21
 30
0
 11
-4.583715342227159
 21
18.5
 31
0
 12
-5.416284657772841
 22
18.5
 32
0
 13
-5.416284657772841
 23
18.5
 33
0
  0
SOLID
  5
1E1
100
AcDbEntity
  8
quote
  6
ByBlock
 62
    0
370
   -2
100
AcDbTrace
 10
-5
 20
27
 30
0
 11
-5.41628465777284
 21
29.5
 31
0
 12
-4.583715342227159
 22
29.5
 32
0
 13
-4.583715342227159
 23
29.5
 33
0
  0
LINE
  5
1E2
100
AcDbEntity
  8
quote
  6
ByBlock
 62
    0
370
   -2
100
AcDbLine
 10
47.375
 20
21
 11
-6.25
 21
21
  0
LINE
  5
1E3
100
AcDbEntity
  8
quote
  6
ByBlock
 62
    0
370
   -2
100
AcDbLine
 10
26.375
 20
27
 11
-6.25
 21
27
  0
ENDBLK
  5
D2
330
D0
100
AcDbEntity
  8
0
100
AcDbBlockEnd
  0
BLOCK
  5
D4
330
D3
100
AcDbEntity
  8
0
100
AcDbBlockBegin
  2
*D30
 70
    1
 10
0
 20
0
  3
*D30
  1

  0
LINE
  5
1E4
100
AcDbEntity
  8
quote
  6
ByBlock
 62
    0
370
   -2
100
AcDbLine
 10
142
 20
52
 11
130
 21
52
  0
MTEXT
  5
1E5
100
AcDbEntity
  8
quote
  6
CONTINUOUS
 62
    0
370
   -2
100
AcDbMText
 10
136
 20
53.875
 30
0
 40
2.5
 41
5.277777777777779
 71
    5
 72
    1
  1
12.0
  7
standard
210
0
220
0
230
1
 50
0
 73
    2
 44
1
  0
SOLID
  5
1E6
100
AcDbEntity
  8
quote
  6
ByBlock
 62
    0
370
   -2
100
AcDbTrace
 10
142
 20
52
 30
0
 11
139.5
 21
51.58371534222716
 31
0
 12
139.5
 22
52.41628465777284
 32
0
 13
139.5
 23
52.41628465777284
 33
0
  0
SOLID
  5
1E7
100
AcDbEntity
  8
quote
  6
ByBlock
 62
    0
370
   -2
100
AcDbTrace
 10
130
 20
52
 30
0
 11
132.5
 21
52.41628465777284
 31
0
 12
132.5
 22
51.58371534222716
 32
0
 13
132.5
 23
51.58371534222716
 33
0
  0
LINE
  5
1E8
100
AcDbEntity
  8
quote
  6
ByBlock
 62
    0
370
   -2
100
AcDbLine
 10
142
 20
47.625
 11
142
 21
53.25
  0
LINE
  5
1E9
100
AcDbEntity
  8
quote
  6
ByBlock
 62
    0
370
   -2
100
AcDbLine
 10
130
 20
47.625
 11
130
 21
53.25
  0
ENDBLK
  5
D5
330
D3
100
AcDbEntity
  8
0
100
AcDbBlockEnd
  0
BLOCK
  5
D7
330
D6
100
AcDbEntity
  8
0
100
AcDbBlockBegin
  2
*D27
 70
    1
 10
0
 20
0
  3
*D27
  1

  0
LINE
  5
1EA
100
AcDbEntity
  8
quote
  6
ByBlock
 62
    0
370
   -2
100
AcDbLine
 10
147
 20
4.000000000000004
 11
147
 21
25
  0
MTEXT
  5
1EB
100
AcDbEntity
  8
quote
  6
CONTINUOUS
 62
    0
370
   -2
100
AcDbMText
 10
145.125
 20
14.5
 30
0
 40
2.5
 41
5.277777777777779
 71
    5
 72
    1
  1
21.0
  7
standard
210
0
220
0
230
1
 50
90
 73
    2
 44
1
  0
SOLID
  5
1EC
100
AcDbEntity
  8
quote
  6
ByBlock
 62
    0
370
   -2
100
AcDbTrace
 10
147
 20
4.000000000000004
 30
0
 11
146.5837153422272
 21
6.500000000000004
 31
0
 12
147.4162846577728
 22
6.500000000000004
 32
0
 13
147.4162846577728
 23
6.500000000000004
 33
0
  0
SOLID
  5
1ED
100
AcDbEntity
  8
quote
  6
ByBlock
 62
    0
370
   -2
100
AcDbTrace
 10
147
 20
25
 30
0
 11
147.4162846577728
 21
22.5
 31
0
 12
146.5837153422272
 22
22.5
 32
0
 13
146.5837153422272
 23
22.5
 33
0
  0
LINE
  5
1EE
100
AcDbEntity
  8
quote
  6
ByBlock
 62
    0
370
   -2
100
AcDbLine
 10
142.625
 20
4.000000000000001
 11
148.25
 21
4.000000000000004
  0
LINE
  5
1EF
100
AcDbEntity
  8
quote
  6
ByBlock
 62
    0
370
   -2
100
AcDbLine
 10
130.625
 20
25
 11
148.25
 21
25
  0
ENDBLK
  5
D8
330
D6
100
AcDbEntity
  8
0
100
AcDbBlockEnd
  0
BLOCK
  5
DA
330
D9
100
AcDbEntity
  8
0
100
AcDbBlockBegin
  2
*D47
 70
    1
 10
0
 20
0
  3
*D47
  1

  0
LINE
  5
1F0
100
AcDbEntity
  8
quote
  6
ByBlock
 62
    0
370
   -2
100
AcDbLine
 10
27
 20
-16
 11
6
 21
-16
  0
MTEXT
  5
1F1
100
AcDbEntity
  8
quote
  6
CONTINUOUS
 62
    0
370
   -2
100
AcDbMText
 10
16.5
 20
-14.125
 30
0
 40
2.5
 41
5.277777777777779
 71
    5
 72
    1
  1
21.0
  7
standard
210
0
220
0
230
1
 50
0
 73
    2
 44
1
  0
SOLID
  5
1F2
100
AcDbEntity
  8
quote
  6
ByBlock
 62
    0
370
   -2
100
AcDbTrace
 10
27
 20
-16
 30
0
 11
24.5
 21
-16.41628465777284
 31
0
 12
24.5
 22
-15.58371534222716
 32
0
 13
24.5
 23
-15.58371534222716
 33
0
  0
SOLID
  5
1F3
100
AcDbEntity
  8
quote
  6
ByBlock
 62
    0
370
   -2
100
AcDbTrace
 10
6
 20
-16
 30
0
 11
8.5
 21
-15.58371534222716
 31
0
 12
8.5
 22
-16.41628465777284
 32
0
 13
8.5
 23
-16.41628465777284
 33
0
  0
LINE
  5
1F4
100
AcDbEntity
  8
quote
  6
ByBlock
 62
    0
370
   -2
100
AcDbLine
 10
27
 20
26.375
 11
27
 21
-17.25
  0
LINE
  5
1F5
100
AcDbEntity
  8
quote
  6
ByBlock
 62
    0
370
   -2
100
AcDbLine
 10
6
 20
26.375
 11
6
 21
-17.25
  0
ENDBLK
  5
DB
330
D9
100
AcDbEntity
  8
0
100
AcDbBlockEnd
  0
ENDSEC
  0
SECTION
  2
ENTITIES
  0
LINE
  5
1F6
100
AcDbEntity
  8
costruzione
  6
ByLayer
 62
  256
370
   -1
100
AcDbLine
 10
0
 20
0
 11
10
 21
0
  0
LINE
  5
1F7
100
AcDbEntity
  8
costruzione
  6
ByLayer
 62
  256
370
   -1
100
AcDbLine
 10
0
 20
0
 11
6.123031769111886e-17
 21
1
  0
DIMENSION
  5
1F8
100
AcDbEntity
  8
quote
  6
ByLayer
 62
  256
370
   -1
100
AcDbDimension
  2
*D1
 10
27
 20
60
 30
0
 11
13.5
 21
61.875
 31
0
 70
   32
 71
    5
 72
    0
  3
Standard
 53
0
210
0
220
0
230
1
100
AcDbAlignedDimension
 13
0
 23
27
 33
0
 14
27
 24
27
 34
0
100
AcDbRotatedDimension
  0
DIMENSION
  5
1F9
100
AcDbEntity
  8
quote
  6
ByLayer
 62
  256
370
   -1
100
AcDbDimension
  2
*D2
 10
54
 20
60
 30
0
 11
40.5
 21
61.875
 31
0
 70
   32
 71
    5
 72
    0
  3
Standard
 53
0
210
0
220
0
230
1
100
AcDbAlignedDimension
 13
27
 23
27
 33
0
 14
54
 24
27
 34
0
100
AcDbRotatedDimension
  0
DIMENSION
  5
1FA
100
AcDbEntity
  8
quote
  6
ByLayer
 62
  256
370
   -1
100
AcDbDimension
  2
*D3
 10
54
 20
70
 30
0
 11
27
 21
71.875
 31
0
 70
   32
 71
    5
 72
    0
  3
Standard
 53
0
210
0
220
0
230
1
100
AcDbAlignedDimension
 13
0
 23
27
 33
0
 14
54
 24
27
 34
0
100
AcDbRotatedDimension
  0
CIRCLE
  5
1FB
100
AcDbEntity
  8
0
  6
ByLayer
 62
  256
370
   -1
100
AcDbCircle
 10
27
 20
27
 40
27
  0
CIRCLE
  5
1FC
100
AcDbEntity
  8
0
  6
ByLayer
 62
  256
370
   -1
100
AcDbCircle
 10
27
 20
27
 40
10
  0
DIMENSION
  5
1FD
100
AcDbEntity
  8
quote
  6
ByLayer
 62
  256
370
   -1
100
AcDbDimension
  2
*D4
 10
62
 20
27
 30
0
 11
60.125
 21
22
 31
0
 70
   32
 71
    5
 72
    0
  3
Standard
 53
0
210
0
220
0
230
1
100
AcDbAlignedDimension
 13
27
 23
17
 33
0
 14
27
 24
27
 34
0
 50
90
100
AcDbRotatedDimension
  0
DIMENSION
  5
1FE
100
AcDbEntity
  8
quote
  6
ByLayer
 62
  256
370
   -1
100
AcDbDimension
  2
*D5
 10
62
 20
36.99999999999999
 30
0
 11
60.125
 21
32
 31
0
 70
   32
 71
    5
 72
    0
  3
Standard
 53
0
210
0
220
0
230
1
100
AcDbAlignedDimension
 13
27
 23
27
 33
0
 14
27
 24
37
 34
0
 50
90
100
AcDbRotatedDimension
  0
DIMENSION
  5
1FF
100
AcDbEntity
  8
quote
  6
ByLayer
 62
  256
370
   -1
100
AcDbDimension
  2
*D6
 10
70
 20
36.99999999999999
 30
0
 11
68.125
 21
27
 31
0
 70
   32
 71
    5
 72
    0
  3
Standard
 53
0
210
0
220
0
230
1
100
AcDbAlignedDimension
 13
27
 23
17
 33
0
 14
27
 24
37
 34
0
 50
90
100
AcDbRotatedDimension
  0
LINE
  5
200
100
AcDbEntity
  8
0
  6
ByLayer
 62
  256
370
   -1
100
AcDbLine
 10
110
 20
4
 11
120
 21
4
  0
LINE
  5
201
100
AcDbEntity
  8
0
  6
ByLayer
 62
  256
370
   -1
100
AcDbLine
 10
120
 20
4
 11
120
 21
0
  0
LINE
  5
202
100
AcDbEntity
  8
0
  6
ByLayer
 62
  256
370
   -1
100
AcDbLine
 10
120
 20
0
 11
132
 21
0
  0
LINE
  5
203
100
AcDbEntity
  8
0
  6
ByLayer
 62
  256
370
   -1
100
AcDbLine
 10
132
 20
0
 11
132
 21
4
  0
LINE
  5
204
100
AcDbEntity
  8
0
  6
ByLayer
 62
  256
370
   -1
100
AcDbLine
 10
132
 20
4
 11
142
 21
4
  0
LINE
  5
205
100
AcDbEntity
  8
0
  6
ByLayer
 62
  256
370
   -1
100
AcDbLine
 10
110
 20
104
 11
116
 21
104
  0
LINE
  5
206
100
AcDbEntity
  8
0
  6
ByLayer
 62
  256
370
   -1
100
AcDbLine
 10
116
 20
104
 11
116
 21
100
  0
LINE
  5
207
100
AcDbEntity
  8
0
  6
ByLayer
 62
  256
370
   -1
100
AcDbLine
 10
116
 20
100
 11
124
 21
100
  0
LINE
  5
208
100
AcDbEntity
  8
0
  6
ByLayer
 62
  256
370
   -1
100
AcDbLine
 10
124
 20
100
 11
124
 21
104
  0
LINE
  5
209
100
AcDbEntity
  8
0
  6
ByLayer
 62
  256
370
   -1
100
AcDbLine
 10
124
 20
104
 11
130
 21
104
  0
LINE
  5
20A
100
AcDbEntity
  8
0
  6
ByLayer
 62
  256
370
   -1
100
AcDbLine
 10
130
 20
104
 11
131
 21
138
  0
LINE
  5
20B
100
AcDbEntity
  8
0
  6
ByLayer
 62
  256
370
   -1
100
AcDbLine
 10
131
 20
138
 11
124
 21
138
  0
LINE
  5
20C
100
AcDbEntity
  8
0
  6
ByLayer
 62
  256
370
   -1
100
AcDbLine
 10
124
 20
138
 11
124
 21
142
  0
LINE
  5
20D
100
AcDbEntity
  8
0
  6
ByLayer
 62
  256
370
   -1
100
AcDbLine
 10
124
 20
142
 11
116
 21
142
  0
LINE
  5
20E
100
AcDbEntity
  8
0
  6
ByLayer
 62
  256
370
   -1
100
AcDbLine
 10
116
 20
142
 11
116
 21
138
  0
LINE
  5
20F
100
AcDbEntity
  8
0
  6
ByLayer
 62
  256
370
   -1
100
AcDbLine
 10
116
 20
138
 11
110
 21
138
  0
LINE
  5
210
100
AcDbEntity
  8
0
  6
ByLayer
 62
  256
370
   -1
100
AcDbLine
 10
110
 20
138
 11
110
 21
104
  0
DIMENSION
  5
211
100
AcDbEntity
  8
quote
  6
ByLayer
 62
  256
370
   -1
100
AcDbDimension
  2
*D7
 10
106
 20
4.000000000000004
 30
0
 11
104.125
 21
2
 31
0
 70
   32
 71
    5
  3
Standard
 53
0
210
0
220
0
230
1
100
AcDbAlignedDimension
 13
132
 23
0
 33
0
 14
132
 24
4
 34
0
 50
90
100
AcDbRotatedDimension
  0
DIMENSION
  5
212
100
AcDbEntity
  8
quote
  6
ByLayer
 62
  256
370
   -1
100
AcDbDimension
  2
*D8
 10
116
 20
80
 30
0
 11
113
 21
81.875
 31
0
 70
   32
 71
    5
  3
Standard
 53
0
210
0
220
0
230
1
100
AcDbAlignedDimension
 13
110
 23
76
 33
0
 14
116
 24
72
 34
0
100
AcDbRotatedDimension
  0
DIMENSION
  5
213
100
AcDbEntity
  8
quote
  6
ByLayer
 62
  256
370
   -1
100
AcDbDimension
  2
*D9
 10
142
 20
80
 30
0
 11
133
 21
81.875
 31
0
 70
   32
 71
    5
  3
Standard
 53
0
210
0
220
0
230
1
100
AcDbAlignedDimension
 13
124
 23
76
 33
0
 14
142
 24
76
 34
0
100
AcDbRotatedDimension
  0
DIMENSION
  5
214
100
AcDbEntity
  8
quote
  6
ByLayer
 62
  256
370
   -1
100
AcDbDimension
  2
*D10
 10
142
 20
85
 30
0
 11
126
 21
86.875
 31
0
 70
   32
 71
    5
  3
Standard
 53
0
210
0
220
0
230
1
100
AcDbAlignedDimension
 13
110
 23
76
 33
0
 14
142
 24
76
 34
0
100
AcDbRotatedDimension
  0
DIMENSION
  5
215
100
AcDbEntity
  8
quote
  6
ByLayer
 62
  256
370
   -1
100
AcDbDimension
  2
*D11
 10
120
 20
-5
 30
0
 11
115
 21
-3.125
 31
0
 70
   32
 71
    5
  3
Standard
 53
0
210
0
220
0
230
1
100
AcDbAlignedDimension
 13
110
 23
4
 33
0
 14
120
 24
4
 34
0
100
AcDbRotatedDimension
  0
DIMENSION
  5
216
100
AcDbEntity
  8
quote
  6
ByLayer
 62
  256
370
   -1
100
AcDbDimension
  2
*D12
 10
132
 20
-5
 30
0
 11
126
 21
-3.125
 31
0
 70
   32
 71
    5
  3
Standard
 53
0
210
0
220
0
230
1
100
AcDbAlignedDimension
 13
120
 23
4
 33
0
 14
132
 24
0
 34
0
100
AcDbRotatedDimension
  0
DIMENSION
  5
217
100
AcDbEntity
  8
quote
  6
ByLayer
 62
  256
370
   -1
100
AcDbDimension
  2
*D13
 10
142
 20
-5
 30
0
 11
137
 21
-3.125
 31
0
 70
   32
 71
    5
  3
Standard
 53
0
210
0
220
0
230
1
100
AcDbAlignedDimension
 13
132
 23
4
 33
0
 14
142
 24
4
 34
0
100
AcDbRotatedDimension
  0
DIMENSION
  5
218
100
AcDbEntity
  8
quote
  6
ByLayer
 62
  256
370
   -1
100
AcDbDimension
  2
*D14
 10
142
 20
-12
 30
0
 11
126
 21
-10.125
 31
0
 70
   32
 71
    5
  3
Standard
 53
0
210
0
220
0
230
1
100
AcDbAlignedDimension
 13
110
 23
4
 33
0
 14
142
 24
4
 34
0
100
AcDbRotatedDimension
  0
DIMENSION
  5
219
100
AcDbEntity
  8
quote
  6
ByLayer
 62
  256
370
   -1
100
AcDbDimension
  2
*D15
 10
116
 20
95
 30
0
 11
113
 21
96.875
 31
0
 70
   32
 71
    5
  3
Standard
 53
0
210
0
220
0
230
1
100
AcDbAlignedDimension
 13
110
 23
104
 33
0
 14
116
 24
104
 34
0
100
AcDbRotatedDimension
  0
DIMENSION
  5
21A
100
AcDbEntity
  8
quote
  6
ByLayer
 62
  256
370
   -1
100
AcDbDimension
  2
*D16
 10
124
 20
95
 30
0
 11
120
 21
96.875
 31
0
 70
   32
 71
    5
  3
Standard
 53
0
210
0
220
0
230
1
100
AcDbAlignedDimension
 13
116
 23
104
 33
0
 14
124
 24
104
 34
0
100
AcDbRotatedDimension
  0
DIMENSION
  5
21B
100
AcDbEntity
  8
quote
  6
ByLayer
 62
  256
370
   -1
100
AcDbDimension
  2
*D17
 10
130
 20
95
 30
0
 11
127
 21
96.875
 31
0
 70
   32
 71
    5
  3
Standard
 53
0
210
0
220
0
230
1
100
AcDbAlignedDimension
 13
124
 23
104
 33
0
 14
130
 24
104
 34
0
100
AcDbRotatedDimension
  0
DIMENSION
  5
21C
100
AcDbEntity
  8
quote
  6
ByLayer
 62
  256
370
   -1
100
AcDbDimension
  2
*D18
 10
110
 20
90
 30
0
 11
120
 21
91.875
 31
0
 70
   32
 71
    5
  3
Standard
 53
0
210
0
220
0
230
1
100
AcDbAlignedDimension
 13
130
 23
104
 33
0
 14
110
 24
104
 34
0
100
AcDbRotatedDimension
  0
DIMENSION
  5
21D
100
AcDbEntity
  8
quote
  6
ByLayer
 62
  256
370
   -1
100
AcDbDimension
  2
*D19
 10
106
 20
104
 30
0
 11
104.125
 21
102
 31
0
 70
   32
 71
    5
  3
Standard
 53
0
210
0
220
0
230
1
100
AcDbAlignedDimension
 13
124
 23
100
 33
0
 14
124
 24
104
 34
0
 50
90
100
AcDbRotatedDimension
  0
DIMENSION
  5
21E
100
AcDbEntity
  8
quote
  6
ByLayer
 62
  256
370
   -1
100
AcDbDimension
  2
*D20
 10
106
 20
138
 30
0
 11
104.125
 21
121
 31
0
 70
   32
 71
    5
  3
Standard
 53
0
210
0
220
0
230
1
100
AcDbAlignedDimension
 13
130
 23
104
 33
0
 14
124
 24
138
 34
0
 50
90
100
AcDbRotatedDimension
  0
DIMENSION
  5
21F
100
AcDbEntity
  8
quote
  6
ByLayer
 62
  256
370
   -1
100
AcDbDimension
  2
*D21
 10
106
 20
142
 30
0
 11
104.125
 21
140
 31
0
 70
   32
 71
    5
  3
Standard
 53
0
210
0
220
0
230
1
100
AcDbAlignedDimension
 13
124
 23
138
 33
0
 14
116
 24
142
 34
0
 50
90
100
AcDbRotatedDimension
  0
DIMENSION
  5
220
100
AcDbEntity
  8
quote
  6
ByLayer
 62
  256
370
   -1
100
AcDbDimension
  2
*D22
 10
100
 20
100
 30
0
 11
98.125
 21
121
 31
0
 70
   32
 71
    5
  3
Standard
 53
0
210
0
220
0
230
1
100
AcDbAlignedDimension
 13
124
 23
142
 33
0
 14
124
 24
100
 34
0
 50
90
100
AcDbRotatedDimension
  0
LINE
  5
221
100
AcDbEntity
  8
0
  6
ByLayer
 62
  256
370
   -1
100
AcDbLine
 10
110
 20
4
 11
110
 21
72
  0
LINE
  5
222
100
AcDbEntity
  8
0
  6
ByLayer
 62
  256
370
   -1
100
AcDbLine
 10
110
 20
72
 11
116
 21
72
  0
LINE
  5
223
100
AcDbEntity
  8
0
  6
ByLayer
 62
  256
370
   -1
100
AcDbLine
 10
116
 20
72
 11
116
 21
68
  0
LINE
  5
224
100
AcDbEntity
  8
0
  6
ByLayer
 62
  256
370
   -1
100
AcDbLine
 10
116
 20
68
 11
124
 21
68
  0
LINE
  5
225
100
AcDbEntity
  8
0
  6
ByLayer
 62
  256
370
   -1
100
AcDbLine
 10
124
 20
68
 11
124
 21
72
  0
LINE
  5
226
100
AcDbEntity
  8
0
  6
ByLayer
 62
  256
370
   -1
100
AcDbLine
 10
124
 20
72
 11
142
 21
72
  0
DIMENSION
  5
227
100
AcDbEntity
  8
quote
  6
ByLayer
 62
  256
370
   -1
100
AcDbDimension
  2
*D23
 10
106
 20
72
 30
0
 11
104.125
 21
70
 31
0
 70
   32
 71
    5
  3
Standard
 53
0
210
0
220
0
230
1
100
AcDbAlignedDimension
 13
124
 23
68
 33
0
 14
124
 24
72
 34
0
 50
90
100
AcDbRotatedDimension
  0
DIMENSION
  5
228
100
AcDbEntity
  8
quote
  6
ByLayer
 62
  256
370
   -1
100
AcDbDimension
  2
*D24
 10
93.875
 20
2.449212707644755e-15
 30
0
 11
92
 21
36
 31
0
 70
   32
 71
    5
  3
Standard
 53
0
210
0
220
0
230
1
100
AcDbAlignedDimension
 13
103.875
 23
72
 33
0
 14
113.875
 24
0
 34
0
 50
90
100
AcDbRotatedDimension
  0
DIMENSION
  5
229
100
AcDbEntity
  8
quote
  6
ByLayer
 62
  256
370
   -1
100
AcDbDimension
  2
*D25
 10
100
 20
4.000000000000001
 30
0
 11
98.125
 21
38
 31
0
 70
   32
 71
    5
  3
Standard
 53
0
210
0
220
0
230
1
100
AcDbAlignedDimension
 13
124
 23
72
 33
0
 14
110
 24
4
 34
0
 50
90
100
AcDbRotatedDimension
  0
DIMENSION
  5
22A
100
AcDbEntity
  8
quote
  6
ByLayer
 62
  256
370
   -1
100
AcDbDimension
  2
*D26
 10
124
 20
80
 30
0
 11
120
 21
81.875
 31
0
 70
   32
 71
    5
  3
Standard
 53
0
210
0
220
0
230
1
100
AcDbAlignedDimension
 13
116
 23
68
 33
0
 14
124
 24
68
 34
0
100
AcDbRotatedDimension
  0
LINE
  5
22B
100
AcDbEntity
  8
0
  6
ByLayer
 62
  256
370
   -1
100
AcDbLine
 10
164
 20
4
 11
168
 21
4
  0
LINE
  5
22C
100
AcDbEntity
  8
0
  6
ByLayer
 62
  256
370
   -1
100
AcDbLine
 10
168
 20
4
 11
168
 21
68
  0
LINE
  5
22D
100
AcDbEntity
  8
0
  6
ByLayer
 62
  256
370
   -1
100
AcDbLine
 10
168
 20
68
 11
164
 21
68
  0
LINE
  5
22E
100
AcDbEntity
  8
0
  6
ByLayer
 62
  256
370
   -1
100
AcDbLine
 10
164
 20
68
 11
164
 21
47
  0
LINE
  5
22F
100
AcDbEntity
  8
0
  6
ByLayer
 62
  256
370
   -1
100
AcDbLine
 10
164
 20
47
 11
160
 21
47
  0
LINE
  5
230
100
AcDbEntity
  8
0
  6
ByLayer
 62
  256
370
   -1
100
AcDbLine
 10
160
 20
47
 11
160
 21
25
  0
LINE
  5
231
100
AcDbEntity
  8
0
  6
ByLayer
 62
  256
370
   -1
100
AcDbLine
 10
160
 20
25
 11
164
 21
25
  0
LINE
  5
232
100
AcDbEntity
  8
0
  6
ByLayer
 62
  256
370
   -1
100
AcDbLine
 10
164
 20
25
 11
164
 21
4
  0
LINE
  5
233
100
AcDbEntity
  8
0
  6
ByLayer
 62
  256
370
   -1
100
AcDbLine
 10
142
 20
4
 11
142
 21
72
  0
LINE
  5
234
100
AcDbEntity
  8
0
  6
ByLayer
 62
  256
370
   -1
100
AcDbLine
 10
126
 20
47
 11
130
 21
47
  0
LINE
  5
235
100
AcDbEntity
  8
0
  6
ByLayer
 62
  256
370
   -1
100
AcDbLine
 10
130
 20
47
 11
130
 21
25
  0
LINE
  5
236
100
AcDbEntity
  8
0
  6
ByLayer
 62
  256
370
   -1
100
AcDbLine
 10
130
 20
25
 11
126
 21
25
  0
LINE
  5
237
100
AcDbEntity
  8
0
  6
ByLayer
 62
  256
370
   -1
100
AcDbLine
 10
126
 20
25
 11
126
 21
47
  0
DIMENSION
  5
238
100
AcDbEntity
  8
quote
  6
ByLayer
 62
  256
370
   -1
100
AcDbDimension
  2
*D27
 10
147
 20
25
 30
0
 11
145.125
 21
14.5
 31
0
 70
   32
 71
    5
  3
Standard
 53
0
210
0
220
0
230
1
100
AcDbAlignedDimension
 13
142
 23
4
 33
0
 14
130
 24
25
 34
0
 50
90
100
AcDbRotatedDimension
  0
DIMENSION
  5
239
100
AcDbEntity
  8
quote
  6
ByLayer
 62
  256
370
   -1
100
AcDbDimension
  2
*D28
 10
147
 20
47
 30
0
 11
145.125
 21
36
 31
0
 70
   32
 71
    5
  3
Standard
 53
0
210
0
220
0
230
1
100
AcDbAlignedDimension
 13
130
 23
25
 33
0
 14
130
 24
47
 34
0
 50
90
100
AcDbRotatedDimension
  0
DIMENSION
  5
23A
100
AcDbEntity
  8
quote
  6
ByLayer
 62
  256
370
   -1
100
AcDbDimension
  2
*D29
 10
147
 20
72
 30
0
 11
145.125
 21
59.5
 31
0
 70
   32
 71
    5
  3
Standard
 53
0
210
0
220
0
230
1
100
AcDbAlignedDimension
 13
130
 23
47
 33
0
 14
142
 24
72
 34
0
 50
90
100
AcDbRotatedDimension
  0
DIMENSION
  5
23B
100
AcDbEntity
  8
quote
  6
ByLayer
 62
  256
370
   -1
100
AcDbDimension
  2
*D30
 10
130
 20
52
 30
0
 11
136
 21
53.875
 31
0
 70
   32
 71
    5
  3
Standard
 53
0
210
0
220
0
230
1
100
AcDbAlignedDimension
 13
142
 23
47
 33
0
 14
130
 24
47
 34
0
100
AcDbRotatedDimension
  0
DIMENSION
  5
23C
100
AcDbEntity
  8
quote
  6
ByLayer
 62
  256
370
   -1
100
AcDbDimension
  2
*D31
 10
110
 20
52
 30
0
 11
118
 21
53.875
 31
0
 70
   32
 71
    5
  3
Standard
 53
0
210
0
220
0
230
1
100
AcDbAlignedDimension
 13
126
 23
47
 33
0
 14
110
 24
47
 34
0
100
AcDbRotatedDimension
  0
DIMENSION
  5
23D
100
AcDbEntity
  8
quote
  6
ByLayer
 62
  256
370
   -1
100
AcDbDimension
  2
*D32
 10
126
 20
57.125
 30
0
 11
128
 21
59
 31
0
 70
   32
 71
    5
  3
Standard
 53
0
210
0
220
0
230
1
100
AcDbAlignedDimension
 13
130
 23
52.125
 33
0
 14
126
 24
52.125
 34
0
100
AcDbRotatedDimension
  0
DIMENSION
  5
23E
100
AcDbEntity
  8
quote
  6
ByLayer
 62
  256
370
   -1
100
AcDbDimension
  2
*D33
 10
157
 20
25
 30
0
 11
155.125
 21
14.5
 31
0
 70
   32
 71
    5
  3
Standard
 53
0
210
0
220
0
230
1
100
AcDbAlignedDimension
 13
164
 23
4
 33
0
 14
164
 24
25
 34
0
 50
90
100
AcDbRotatedDimension
  0
DIMENSION
  5
23F
100
AcDbEntity
  8
quote
  6
ByLayer
 62
  256
370
   -1
100
AcDbDimension
  2
*D34
 10
157
 20
47
 30
0
 11
155.125
 21
36
 31
0
 70
   32
 71
    5
  3
Standard
 53
0
210
0
220
0
230
1
100
AcDbAlignedDimension
 13
164
 23
25
 33
0
 14
160
 24
47
 34
0
 50
90
100
AcDbRotatedDimension
  0
DIMENSION
  5
240
100
AcDbEntity
  8
quote
  6
ByLayer
 62
  256
370
   -1
100
AcDbDimension
  2
*D35
 10
157
 20
68
 30
0
 11
155.125
 21
57.5
 31
0
 70
   32
 71
    5
  3
Standard
 53
0
210
0
220
0
230
1
100
AcDbAlignedDimension
 13
164
 23
47
 33
0
 14
164
 24
68
 34
0
 50
90
100
AcDbRotatedDimension
  0
DIMENSION
  5
241
100
AcDbEntity
  8
quote
  6
ByLayer
 62
  256
370
   -1
100
AcDbDimension
  2
*D36
 10
152
 20
68
 30
0
 11
150.125
 21
36
 31
0
 70
   32
 71
    5
  3
Standard
 53
0
210
0
220
0
230
1
100
AcDbAlignedDimension
 13
164
 23
4
 33
0
 14
164
 24
68
 34
0
 50
90
100
AcDbRotatedDimension
  0
DIMENSION
  5
242
100
AcDbEntity
  8
quote
  6
ByLayer
 62
  256
370
   -1
100
AcDbDimension
  2
*D37
 10
164
 20
73
 30
0
 11
162
 21
74.875
 31
0
 70
   32
 71
    5
  3
Standard
 53
0
210
0
220
0
230
1
100
AcDbAlignedDimension
 13
160
 23
25
 33
0
 14
164
 24
25
 34
0
100
AcDbRotatedDimension
  0
DIMENSION
  5
243
100
AcDbEntity
  8
quote
  6
ByLayer
 62
  256
370
   -1
100
AcDbDimension
  2
*D38
 10
168
 20
78
 30
0
 11
166
 21
79.875
 31
0
 70
   32
 71
    5
  3
Standard
 53
0
210
0
220
0
230
1
100
AcDbAlignedDimension
 13
164
 23
68
 33
0
 14
168
 24
68
 34
0
100
AcDbRotatedDimension
  0
DIMENSION
  5
244
100
AcDbEntity
  8
quote
  6
ByLayer
 62
  256
370
   -1
100
AcDbDimension
  2
*D39
 10
168
 20
85
 30
0
 11
164
 21
86.875
 31
0
 70
   32
 71
    5
  3
Standard
 53
0
210
0
220
0
230
1
100
AcDbAlignedDimension
 13
160
 23
25
 33
0
 14
168
 24
68
 34
0
100
AcDbRotatedDimension
  0
LINE
  5
245
100
AcDbEntity
  8
costruzione
  6
ByLayer
 62
  256
370
   -1
100
AcDbLine
 10
27
 20
3
 11
27
 21
13
  0
LINE
  5
246
100
AcDbEntity
  8
costruzione
  6
ByLayer
 62
  256
370
   -1
100
AcDbLine
 10
10
 20
27
 11
20
 21
27
  0
LINE
  5
247
100
AcDbEntity
  8
costruzione
  6
ByLayer
 62
  256
370
   -1
100
AcDbLine
 10
10
 20
19
 11
10
 21
29
  0
LINE
  5
248
100
AcDbEntity
  8
costruzione
  6
ByLayer
 62
  256
370
   -1
100
AcDbLine
 10
44
 20
10
 11
44
 21
20
  0
LINE
  5
249
100
AcDbEntity
  8
costruzione
  6
ByLayer
 62
  256
370
   -1
100
AcDbLine
 10
6
 20
17
 11
6.000000000000001
 21
27
  0
LINE
  5
24A
100
AcDbEntity
  8
costruzione
  6
ByLayer
 62
  256
370
   -1
100
AcDbLine
 10
48
 20
16
 11
48
 21
26
  0
LINE
  5
24B
100
AcDbEntity
  8
costruzione
  6
ByLayer
 62
  256
370
   -1
100
AcDbLine
 10
25
 20
33
 11
35
 21
33
  0
LINE
  5
24C
100
AcDbEntity
  8
costruzione
  6
ByLayer
 62
  256
370
   -1
100
AcDbLine
 10
25
 20
21
 11
35
 21
21
  0
LINE
  5
24D
100
AcDbEntity
  8
0
  6
ByLayer
 62
  256
370
   -1
100
AcDbLine
 10
6
 20
33
 11
6
 21
21
  0
LINE
  5
24E
100
AcDbEntity
  8
0
  6
ByLayer
 62
  256
370
   -1
100
AcDbLine
 10
6
 20
21
 11
10
 21
21
  0
LINE
  5
24F
100
AcDbEntity
  8
0
  6
ByLayer
 62
  256
370
   -1
100
AcDbLine
 10
10
 20
21
 11
10
 21
33
  0
LINE
  5
250
100
AcDbEntity
  8
0
  6
ByLayer
 62
  256
370
   -1
100
AcDbLine
 10
10
 20
33
 11
6
 21
33
  0
LINE
  5
251
100
AcDbEntity
  8
0
  6
ByLayer
 62
  256
370
   -1
100
AcDbLine
 10
44
 20
33
 11
48
 21
33
  0
LINE
  5
252
100
AcDbEntity
  8
0
  6
ByLayer
 62
  256
370
   -1
100
AcDbLine
 10
48
 20
33
 11
48
 21
21
  0
LINE
  5
253
100
AcDbEntity
  8
0
  6
ByLayer
 62
  256
370
   -1
100
AcDbLine
 10
48
 20
21
 11
44
 21
21
  0
LINE
  5
254
100
AcDbEntity
  8
0
  6
ByLayer
 62
  256
370
   -1
100
AcDbLine
 10
44
 20
21
 11
44
 21
33
  0
DIMENSION
  5
255
100
AcDbEntity
  8
quote
  6
ByLayer
 62
  256
370
   -1
100
AcDbDimension
  2
*D40
 10
-5
 20
27
 30
0
 11
-6.875
 21
24
 31
0
 70
   32
 71
    5
  3
Standard
 53
0
210
0
220
0
230
1
100
AcDbAlignedDimension
 13
48
 23
21
 33
0
 14
27
 24
27
 34
0
 50
90
100
AcDbRotatedDimension
  0
DIMENSION
  5
256
100
AcDbEntity
  8
quote
  6
ByLayer
 62
  256
370
   -1
100
AcDbDimension
  2
*D41
 10
-5
 20
27
 30
0
 11
-6.875
 21
30
 31
0
 70
   32
 71
    5
  3
Standard
 53
0
210
0
220
0
230
1
100
AcDbAlignedDimension
 13
48
 23
33
 33
0
 14
27
 24
27
 34
0
 50
90
100
AcDbRotatedDimension
  0
DIMENSION
  5
257
100
AcDbEntity
  8
quote
  6
ByLayer
 62
  256
370
   -1
100
AcDbDimension
  2
*D42
 10
-13
 20
33.00000000000001
 30
0
 11
-14.875
 21
27
 31
0
 70
   32
 71
    5
  3
Standard
 53
0
210
0
220
0
230
1
100
AcDbAlignedDimension
 13
48
 23
21
 33
0
 14
48
 24
33
 34
0
 50
90
100
AcDbRotatedDimension
  0
DIMENSION
  5
258
100
AcDbEntity
  8
quote
  6
ByLayer
 62
  256
370
   -1
100
AcDbDimension
  2
*D43
 10
9.999999999999998
 20
-5
 30
0
 11
18.5
 21
-3.125
 31
0
 70
   32
 71
    5
  3
Standard
 53
0
210
0
220
0
230
1
100
AcDbAlignedDimension
 13
27
 23
27
 33
0
 14
10
 24
27
 34
0
100
AcDbRotatedDimension
  0
DIMENSION
  5
259
100
AcDbEntity
  8
quote
  6
ByLayer
 62
  256
370
   -1
100
AcDbDimension
  2
*D44
 10
44
 20
-5
 30
0
 11
35.5
 21
-3.125
 31
0
 70
   32
 71
    5
  3
Standard
 53
0
210
0
220
0
230
1
100
AcDbAlignedDimension
 13
27
 23
27
 33
0
 14
44
 24
27
 34
0
100
AcDbRotatedDimension
  0
DIMENSION
  5
25A
100
AcDbEntity
  8
quote
  6
ByLayer
 62
  256
370
   -1
100
AcDbDimension
  2
*D45
 10
48
 20
-5
 30
0
 11
46
 21
-3.125
 31
0
 70
   32
 71
    5
  3
Standard
 53
0
210
0
220
0
230
1
100
AcDbAlignedDimension
 13
44
 23
27
 33
0
 14
48
 24
27
 34
0
100
AcDbRotatedDimension
  0
DIMENSION
  5
25B
100
AcDbEntity
  8
quote
  6
ByLayer
 62
  256
370
   -1
100
AcDbDimension
  2
*D46
 10
5.999999999999997
 20
-11
 30
0
 11
8
 21
-9.125
 31
0
 70
   32
 71
    5
  3
Standard
 53
0
210
0
220
0
230
1
100
AcDbAlignedDimension
 13
10
 23
27
 33
0
 14
6
 24
27
 34
0
100
AcDbRotatedDimension
  0
DIMENSION
  5
25C
100
AcDbEntity
  8
quote
  6
ByLayer
 62
  256
370
   -1
100
AcDbDimension
  2
*D47
 10
5.999999999999997
 20
-16
 30
0
 11
16.5
 21
-14.125
 31
0
 70
   32
 71
    5
  3
Standard
 53
0
210
0
220
0
230
1
100
AcDbAlignedDimension
 13
27
 23
27
 33
0
 14
6
 24
27
 34
0
100
AcDbRotatedDimension
  0
ENDSEC
  0
SECTION
  2
OBJECTS
  0
DICTIONARY
  5
C
330
0
100
AcDbDictionary
281
    1
  3
ACAD_GROUP
350
D
  0
DICTIONARY
  5
D
330
C
100
AcDbDictionary
281
    1
  0
PLOTSETTINGS
  5
25D
100
AcDbPlotSettings
  6
1x1
 40
0
 41
0
 42
0
 43
0
  0
ENDSEC
  0
EOF
